<svg width="18" height="18" viewBox="0 0 18 18" fill="none" xmlns="http://www.w3.org/2000/svg">
<path d="M9 0.28125C13.8164 0.28125 17.7188 4.18359 17.7188 9C17.7188 13.8164 13.8164 17.7188 9 17.7188C4.18359 17.7188 0.28125 13.8164 0.28125 9C0.28125 4.18359 4.18359 0.28125 9 0.28125ZM7.98398 5.32969L10.6383 7.875H4.21875C3.75117 7.875 3.375 8.25117 3.375 8.71875V9.28125C3.375 9.74883 3.75117 10.125 4.21875 10.125H10.6383L7.98398 12.6703C7.64297 12.9973 7.63594 13.5422 7.96992 13.8762L8.35664 14.2594C8.68711 14.5898 9.22148 14.5898 9.54844 14.2594L14.2137 9.59766C14.5441 9.26719 14.5441 8.73281 14.2137 8.40586L9.54844 3.73711C9.21797 3.40664 8.68359 3.40664 8.35664 3.73711L7.96992 4.12031C7.63594 4.45781 7.64297 5.00273 7.98398 5.32969V5.32969Z" fill="#E3000B"/>
</svg>
