<svg width="48" height="48" viewBox="0 0 48 48" fill="none" xmlns="http://www.w3.org/2000/svg">
<circle cx="24" cy="24" r="16" fill="white"/>
<path d="M24 0.75C11.1562 0.75 0.75 11.1562 0.75 24C0.75 36.8438 11.1562 47.25 24 47.25C36.8438 47.25 47.25 36.8438 47.25 24C47.25 11.1562 36.8438 0.75 24 0.75ZM35.4 30.1031C35.8406 30.5438 35.8406 31.2563 35.4 31.6969L31.6875 35.4C31.2469 35.8406 30.5344 35.8406 30.0938 35.4L24 29.25L17.8969 35.4C17.4562 35.8406 16.7437 35.8406 16.3031 35.4L12.6 31.6875C12.1594 31.2469 12.1594 30.5344 12.6 30.0938L18.75 24L12.6 17.8969C12.1594 17.4562 12.1594 16.7437 12.6 16.3031L16.3125 12.5906C16.7531 12.15 17.4656 12.15 17.9062 12.5906L24 18.75L30.1031 12.6C30.5438 12.1594 31.2563 12.1594 31.6969 12.6L35.4094 16.3125C35.85 16.7531 35.85 17.4656 35.4094 17.9062L29.25 24L35.4 30.1031Z" fill="black"/>
</svg>
