<svg width="66" height="57" viewBox="0 0 66 57" fill="none" xmlns="http://www.w3.org/2000/svg">
<path d="M10.7328 1.7932L11.5318 2.48919L11.9855 2.09745L12.6195 2.1439L13.0268 2.38622L13.6298 2.85538L14.0216 3.30905L14.6711 3.14415L15.3516 2.55653L15.594 2.14931L16.4394 2.21124L17.4652 2.71136L19.4858 4.13432L20.7385 4.43857L21.1612 4.46954L21.9911 4.74283L22.5942 5.21198L22.7591 5.86153L23.5116 7.19159L23.7075 7.41842L25.3829 7.75364L26.0014 8.01144L25.7436 8.63002L27.3106 10.4447L27.0528 11.0633L25.2536 12.4189L26.5372 12.3005L27.5475 13.0119L29.5991 14.0122L30.6094 14.7237L32.4033 16.3425L34.1971 17.9613L37.4912 16.5027L37.9139 16.5337L38.3212 16.776L39.347 17.2761L39.7852 17.0957L40.4192 17.1422L41.2337 17.6268L41.6409 17.8692L42.0946 17.4774L42.7286 17.5239L43.1204 17.9775L43.5121 18.4312L43.4812 18.8539L43.8884 19.0962L44.3111 19.1272L44.7183 19.3695L45.1101 19.8232L45.0791 20.2459L46.0739 21.1687L46.2234 22.0296L46.677 21.6379L47.7493 21.504L49.2752 20.9783L50.1671 20.4062L51.028 20.2567L51.6156 20.9372L52.7498 19.9579L53.2035 19.5661L52.8117 19.1125L57.1371 15.1796L58.1319 16.1024L58.5701 15.922L57.9825 15.2415L58.2558 14.4116L58.5136 13.793L57.3229 12.6433L58.5655 10.1845L60.8184 8.43712L61.6793 8.2877L62.102 8.31866L63.0093 7.53518L63.6434 7.58163L64.2465 8.05078L63.9577 9.09207L64.6072 8.92717L65.2413 8.97362L65.6485 9.21594L65.3288 10.6799L63.086 15.1904L62.4674 14.9326L61.8333 14.8861L62.0137 15.3243L61.2713 16.7573L60.8331 16.9377L60.4414 16.4841L59.5805 16.6335L59.1268 17.0252L59.7144 17.7057L55.3735 21.85L55.3426 22.2727L54.4197 23.2675L53.9815 23.4479L53.3784 22.9788L52.7599 22.721L52.5485 22.7055L52.3371 22.69L52.4866 23.5509L48.5428 25.1744L49.115 26.0663L49.7026 26.7468L50.0788 27.4118L50.2128 28.4841L50.1199 29.7522L50.4032 31.6853L49.9341 32.2884L50.6711 33.8298L51.7279 33.9073L52.4185 36.0827L52.8358 39.0881L52.8048 39.5108L53.5419 41.0523L53.0417 42.0781L52.3612 42.6657L53.5829 43.3926L53.7478 44.0422L53.3816 46.1402L51.0978 48.3103L45.4996 46.4128L45.8348 44.7374L45.8658 44.3147L46.1545 43.2734L46.2319 42.2167L46.6701 42.0363L47.1238 41.6445L47.7579 41.691L49.2219 42.0107L50.2632 42.2995L49.691 41.4076L49.2683 41.3767L48.7117 40.2734L48.155 39.1702L47.5674 38.4897L47.2221 37.402L46.6035 37.1442L45.7736 36.8709L44.7168 36.7935L44.5775 38.6957L44.3352 39.1029L43.4588 39.4637L42.3865 39.5976L36.4841 38.9527L36.1853 37.2309L36.0049 36.7927L35.3863 36.5349L34.9791 36.2926L35.4327 35.9009L34.8142 35.6431L35.2678 35.2513L34.8761 34.7976L35.3452 34.1945L36.6443 33.8647L36.7218 32.808L37.3558 32.8544L38.6239 32.9473L40.6755 33.9476L40.3457 32.6485L40.1654 32.2103L39.7426 32.1793L39.186 31.0761L37.5726 29.8955L35.6239 30.3902L33.9021 30.689L31.3659 30.5032L22.637 48.1378L21.6266 47.4263L20.3376 50.5192L20.2912 51.1533L19.7601 52.6018L19.095 52.978L18.461 52.9316L17.8525 55.4369L12.0221 56.7097L8.44993 53.2606L8.52734 52.2039L8.55831 51.7812L7.93973 51.5234L7.51702 51.4924L7.77482 50.8738L8.43985 50.4976L8.89352 50.1058L9.24423 48.2191L10.966 47.9203L12.0228 47.9977L13.6981 48.3329L14.9198 49.0599L16.3219 50.225L17.0334 49.2147L16.6261 48.9724L16.4303 48.7455L16.4458 48.5342L16.6881 48.127L16.7345 47.4929L16.9768 47.0857L17.4305 46.6939L17.6728 46.2867L17.9461 45.4568L18.1884 45.0495L18.2504 44.2041L18.7195 43.601L19.1577 43.4206L19.6578 42.3948L19.9002 41.9876L19.9621 41.1422L20.2044 40.735L20.6581 40.3432L21.1273 39.7401L20.9314 39.5133L20.5242 39.271L21.0506 32.0849L19.5401 32.3993L18.6429 35.9458L17.3902 35.6416L17.055 37.3169L17.2509 37.5438L17.4467 37.7706L16.8228 40.4872L16.6114 40.4718L16.1887 40.4408L15.5546 40.3943L15.1474 40.152L14.7402 39.9097L14.7711 39.487L14.3484 39.456L13.9668 41.7654L8.07982 40.9092L8.0953 40.6978L8.25013 38.5843L6.99749 38.2801L6.80162 38.0532L6.60574 37.8264L6.83258 37.6305L7.27077 37.4501L6.86355 37.2078L6.87903 36.9965L7.10587 36.8006L7.54406 36.6202L7.13683 36.3779L7.15232 36.1665L7.37915 35.9706L8.25554 35.6099L8.90508 35.445L9.20933 34.1923L10.4775 34.2852L11.926 34.8163L13.9776 35.8166L14.1889 35.832L14.4622 35.0021L15.0963 35.0486L15.1582 34.2031L14.5396 33.9453C14.6359 33.5982 14.8315 32.8618 14.8439 32.6927C14.8563 32.5236 15.1515 32.3611 15.2976 32.3009L14.9213 31.6359L14.6635 32.2545L13.4109 31.9502L13.0036 31.7079L13.112 30.2284L12.9316 29.7903L12.7257 26.8003L12.7876 25.9549L13.8343 23.2692L12.5817 22.965L12.6281 22.3309L7.7306 25.372L6.2666 25.0522L5.63254 25.0058L5.45215 24.5676L5.04493 24.3253L4.48828 23.2221L4.51924 22.7993L3.90066 22.5415L3.85422 23.1756L3.40054 23.5673L2.96235 23.7477L2.32829 23.7013L1.69422 23.6548L1.51384 23.2166L1.10661 22.9743L0.941706 22.3248L0.776801 21.6752L0.807767 21.2525L0.82325 21.0412L0.854216 20.6185L0.704794 19.7576L0.782209 18.7008L1.11743 17.0254L1.39071 16.1955L1.63303 15.7883L2.05574 15.8192L2.44748 16.2729L2.18968 16.8915L2.32362 17.9638L2.45756 19.036L2.66891 19.0515L4.89084 17.7268L5.13316 17.3196L5.35999 17.1237L5.7827 17.1547L6.44773 16.7785L6.28283 16.1289L6.34476 15.2835L6.37572 14.8608L6.63353 14.2422L3.09777 7.39605L3.14422 6.76199L2.55661 6.08147L2.58757 5.65877L2.40719 5.22057L2.43815 4.79787C2.58602 3.74626 2.88485 1.60077 2.89723 1.43168C2.90962 1.2626 3.07426 0.948844 3.15504 0.813102L7.15528 1.31863L7.38212 1.12276L10.3256 1.55088L10.7328 1.7932Z" fill="black"/>
</svg>
