<?xml version="1.0" encoding="UTF-8"?>
<svg width="303px" height="270px" viewBox="0 0 303 270" version="1.1" xmlns="http://www.w3.org/2000/svg" xmlns:xlink="http://www.w3.org/1999/xlink">
    <title>The Dark Tower</title>
    <g id="Portfolio-Website" stroke="none" stroke-width="1" fill="none" fill-rule="evenodd">
        <g id="Home" transform="translate(-1104.000000, -611.000000)">
            <g id="Vectors" transform="translate(-398.000000, 612.000000)">
                <g id="The-Dark-Tower" transform="translate(1503.000000, 0.000000)">
                    <g id="Book-7" transform="translate(240.258780, 0.000000)">
                        <rect id="Book-Shape" stroke="#000000" stroke-width="1.98151571" fill="#FFFFFF" x="0" y="0" width="59.4454713" height="268" rx="1.48613678"></rect>
                        <g id="Title" transform="translate(21.837294, 169.419593)" fill="#000000" font-family="PlayfairDisplaySC-Regular, Playfair Display SC" font-weight="normal">
                            <text id="The-Dark-Tower-VII" transform="translate(3.646994, 46.590573) rotate(-270.000000) translate(-3.646994, -46.590573) " font-size="4.95378928" letter-spacing="0.512460935">
                                <tspan x="-25.8530055" y="48.590573">The Dark Tower VII</tspan>
                            </text>
                            <text id="The-Dark-Tower" transform="translate(9.925194, 44.247689) rotate(-270.000000) translate(-9.925194, -44.247689) " font-size="8.9168207" letter-spacing="0.922429736">
                                <tspan x="-34.0748059" y="48.2476895">The Dark Tower</tspan>
                            </text>
                        </g>
                        <text id="Stephen-King" transform="translate(29.630314, 100.130314) rotate(-270.000000) translate(-29.630314, -100.130314) " font-family="PlayfairDisplaySC-Regular, Playfair Display SC" font-size="14.8613678" font-weight="normal" letter-spacing="1.48613684" fill="#000000">
                            <tspan x="-30.8696858" y="106.130314">Stephen King</tspan>
                        </text>
                        <g id="Keyhole" transform="translate(24.768946, 4.953789)">
                            <rect id="Container" fill="#000000" x="0.990757856" y="19.3197782" width="8.42144177" height="6.43992606"></rect>
                            <text id="VII" font-family="PlayfairDisplaySC-Bold, Playfair Display SC" font-size="4.95378928" font-weight="bold" fill="#FFFFFF">
                                <tspan x="1.68428835" y="23.8243993">VII</tspan>
                            </text>
                            <path d="M5.20147874,0 C8.07417613,0 10.4029575,2.22216039 10.4029575,4.96333415 C10.4029575,6.75643878 9.40648148,8.32745972 7.9131182,9.19968138 L9.60272999,19.8151571 L0.800227499,19.8151571 L2.41838357,9.15718439 C0.964773996,8.27701797 0,6.72768521 0,4.96333415 C0,2.22216039 2.32878136,0 5.20147874,0 Z" fill="#000000"></path>
                        </g>
                    </g>
                    <g id="Book-6" transform="translate(188.243993, 0.000000)">
                        <rect id="Book-Shape" stroke="#000000" stroke-width="1.98151571" fill="#FFFFFF" x="0" y="0" width="49.5378928" height="268" rx="1.48613678"></rect>
                        <g id="Title" transform="translate(16.883505, 169.419593)" fill="#000000" font-family="PlayfairDisplaySC-Regular, Playfair Display SC" font-weight="normal">
                            <text id="The-Dark-Tower-VI" transform="translate(3.646994, 45.590573) rotate(-270.000000) translate(-3.646994, -45.590573) " font-size="4.95378928" letter-spacing="0.512460935">
                                <tspan x="-24.8530055" y="47.590573">The Dark Tower VI</tspan>
                            </text>
                            <text id="Song-of-Susannah" transform="translate(9.925194, 47.247689) rotate(-270.000000) translate(-9.925194, -47.247689) " font-size="8.9168207" letter-spacing="0.643992604">
                                <tspan x="-37.0748059" y="51.2476895">Song of Susannah</tspan>
                            </text>
                        </g>
                        <text id="Stephen-King" transform="translate(24.676525, 100.130314) rotate(-270.000000) translate(-24.676525, -100.130314) " font-family="PlayfairDisplaySC-Regular, Playfair Display SC" font-size="14.8613678" font-weight="normal" letter-spacing="1.48613684" fill="#000000">
                            <tspan x="-35.823475" y="106.130314">Stephen King</tspan>
                        </text>
                        <g id="Keyhole" transform="translate(19.815157, 4.953789)">
                            <rect id="Container" fill="#000000" x="1.98151571" y="19.3197782" width="6.43992606" height="6.43992606"></rect>
                            <text id="VI" font-family="PlayfairDisplaySC-Bold, Playfair Display SC" font-size="4.95378928" font-weight="bold" fill="#FFFFFF">
                                <tspan x="2.61560074" y="23.8243993">VI</tspan>
                            </text>
                            <path d="M5.20147874,0 C8.07417613,0 10.4029575,2.22216039 10.4029575,4.96333415 C10.4029575,6.75643878 9.40648148,8.32745972 7.9131182,9.19968138 L9.60272999,19.8151571 L0.800227499,19.8151571 L2.41838357,9.15718439 C0.964773996,8.27701797 0,6.72768521 0,4.96333415 C0,2.22216039 2.32878136,0 5.20147874,0 Z" fill="#000000"></path>
                        </g>
                    </g>
                    <g id="Book-5" transform="translate(136.229205, 0.000000)">
                        <rect id="Book-Shape" stroke="#000000" stroke-width="1.98151571" fill="#FFFFFF" x="0" y="0" width="49.5378928" height="268" rx="1.48613678"></rect>
                        <g id="Title" transform="translate(17.378884, 169.419593)" fill="#000000" font-family="PlayfairDisplaySC-Regular, Playfair Display SC" font-weight="normal">
                            <text id="The-Dark-Tower-V" transform="translate(3.646994, 44.590573) rotate(-270.000000) translate(-3.646994, -44.590573) " font-size="4.95378928" letter-spacing="0.512460935">
                                <tspan x="-23.8530055" y="46.590573">The Dark Tower V</tspan>
                            </text>
                            <text id="Wolves-of-the-Calla" transform="translate(9.929815, 46.747689) rotate(-270.000000) translate(-9.929815, -46.747689) " font-size="8.42144177">
                                <tspan x="-36.5701848" y="50.2476895">Wolves of the Calla</tspan>
                            </text>
                        </g>
                        <text id="Stephen-King" transform="translate(24.676525, 100.130314) rotate(-270.000000) translate(-24.676525, -100.130314) " font-family="PlayfairDisplaySC-Regular, Playfair Display SC" font-size="14.8613678" font-weight="normal" letter-spacing="1.48613684" fill="#000000">
                            <tspan x="-35.823475" y="106.130314">Stephen King</tspan>
                        </text>
                        <g id="Keyhole" transform="translate(19.815157, 4.953789)">
                            <rect id="Container" fill="#000000" x="1.98151571" y="19.3197782" width="6.43992606" height="6.43992606"></rect>
                            <text id="V" font-family="PlayfairDisplaySC-Bold, Playfair Display SC" font-size="4.95378928" font-weight="bold" fill="#FFFFFF">
                                <tspan x="3.54691312" y="23.8243993">V</tspan>
                            </text>
                            <path d="M5.20147874,0 C8.07417613,0 10.4029575,2.22216039 10.4029575,4.96333415 C10.4029575,6.75643878 9.40648148,8.32745972 7.9131182,9.19968138 L9.60272999,19.8151571 L0.800227499,19.8151571 L2.41838357,9.15718439 C0.964773996,8.27701797 0,6.72768521 0,4.96333415 C0,2.22216039 2.32878136,0 5.20147874,0 Z" fill="#000000"></path>
                        </g>
                    </g>
                    <g id="Book-4" transform="translate(94.121996, 0.000000)">
                        <rect id="Book-Shape" stroke="#000000" stroke-width="1.98151571" fill="#FFFFFF" x="0" y="0" width="39.6303142" height="268" rx="1.48613678"></rect>
                        <g id="Title" transform="translate(11.929715, 169.419593)" fill="#000000" font-family="PlayfairDisplaySC-Regular, Playfair Display SC" font-weight="normal">
                            <text id="The-Dark-Tower-IV" transform="translate(3.646994, 45.590573) rotate(-270.000000) translate(-3.646994, -45.590573) " font-size="4.95378928" letter-spacing="0.512460935">
                                <tspan x="-24.8530055" y="47.590573">The Dark Tower IV</tspan>
                            </text>
                            <text id="Wizard-And-Glass" transform="translate(9.925194, 46.247689) rotate(-270.000000) translate(-9.925194, -46.247689) " font-size="8.9168207" letter-spacing="0.643992604">
                                <tspan x="-36.0748059" y="50.2476895">Wizard And Glass</tspan>
                            </text>
                        </g>
                        <text id="Stephen-King" transform="translate(19.722736, 100.130314) rotate(-270.000000) translate(-19.722736, -100.130314) " font-family="PlayfairDisplaySC-Regular, Playfair Display SC" font-size="14.8613678" font-weight="normal" letter-spacing="1.48613684" fill="#000000">
                            <tspan x="-40.7772643" y="106.130314">Stephen King</tspan>
                        </text>
                        <g id="Keyhole" transform="translate(14.861368, 4.953789)">
                            <rect id="Container" fill="#000000" x="1.98151571" y="19.3197782" width="6.43992606" height="6.43992606"></rect>
                            <text id="IV" font-family="PlayfairDisplaySC-Bold, Playfair Display SC" font-size="4.95378928" font-weight="bold" fill="#FFFFFF">
                                <tspan x="2.61560074" y="23.8243993">IV</tspan>
                            </text>
                            <path d="M5.20147874,0 C8.07417613,0 10.4029575,2.22216039 10.4029575,4.96333415 C10.4029575,6.75643878 9.40648148,8.32745972 7.9131182,9.19968138 L9.60272999,19.8151571 L0.800227499,19.8151571 L2.41838357,9.15718439 C0.964773996,8.27701797 0,6.72768521 0,4.96333415 C0,2.22216039 2.32878136,0 5.20147874,0 Z" fill="#000000"></path>
                        </g>
                    </g>
                    <g id="Book-3" transform="translate(59.445471, 0.000000)">
                        <rect id="Book-Shape" stroke="#000000" stroke-width="1.98151571" fill="#FFFFFF" x="0" y="0" width="32.1996303" height="268" rx="1.48613678"></rect>
                        <g id="Title" transform="translate(8.462063, 169.419593)" fill="#000000" font-family="PlayfairDisplaySC-Regular, Playfair Display SC" font-weight="normal">
                            <text id="The-Dark-Tower-III" transform="translate(3.646994, 46.090573) rotate(-270.000000) translate(-3.646994, -46.090573) " font-size="4.95378928" letter-spacing="0.512460935">
                                <tspan x="-25.3530055" y="48.090573">The Dark Tower III</tspan>
                            </text>
                            <text id="The-Wastelands" transform="translate(9.925194, 44.747689) rotate(-270.000000) translate(-9.925194, -44.747689) " font-size="8.9168207" letter-spacing="0.922429736">
                                <tspan x="-34.5748059" y="48.7476895">The Wastelands</tspan>
                            </text>
                        </g>
                        <text id="Stephen-King" transform="translate(15.759704, 100.130314) rotate(-270.000000) translate(-15.759704, -100.130314) " font-family="PlayfairDisplaySC-Regular, Playfair Display SC" font-size="14.8613678" font-weight="normal" letter-spacing="1.48613684" fill="#000000">
                            <tspan x="-44.7402957" y="106.130314">Stephen King</tspan>
                        </text>
                        <g id="Keyhole" transform="translate(10.898336, 4.953789)">
                            <rect id="Container" fill="#000000" x="1.98151571" y="19.3197782" width="6.43992606" height="6.43992606"></rect>
                            <text id="III" font-family="PlayfairDisplaySC-Bold, Playfair Display SC" font-size="4.95378928" font-weight="bold" fill="#FFFFFF">
                                <tspan x="2.40754159" y="23.8243993">III</tspan>
                            </text>
                            <path d="M5.20147874,0 C8.07417613,0 10.4029575,2.22216039 10.4029575,4.96333415 C10.4029575,6.75643878 9.40648148,8.32745972 7.9131182,9.19968138 L9.60272999,19.8151571 L0.800227499,19.8151571 L2.41838357,9.15718439 C0.964773996,8.27701797 0,6.72768521 0,4.96333415 C0,2.22216039 2.32878136,0 5.20147874,0 Z" fill="#000000"></path>
                        </g>
                    </g>
                    <g id="Book-2" transform="translate(27.245841, 0.000000)">
                        <rect id="Book-Shape" stroke="#000000" stroke-width="1.98151571" fill="#FFFFFF" x="0" y="0" width="29.7227357" height="268" rx="1.48613678"></rect>
                        <g id="Title" transform="translate(6.975926, 169.419593)" fill="#000000" font-family="PlayfairDisplaySC-Regular, Playfair Display SC" font-weight="normal">
                            <text id="The-Dark-Tower-II" transform="translate(3.646994, 44.590573) rotate(-270.000000) translate(-3.646994, -44.590573) " font-size="4.95378928" letter-spacing="0.512460935">
                                <tspan x="-23.8530055" y="46.590573">The Dark Tower II</tspan>
                            </text>
                            <text id="The-Drawing-of-The-T" transform="translate(8.948299, 45.247689) rotate(-270.000000) translate(-8.948299, -45.247689) " font-size="6.43992606">
                                <tspan x="-36.0517006" y="47.7476895">The Drawing of The Three</tspan>
                            </text>
                        </g>
                        <text id="Stephen-King" transform="translate(14.768946, 100.130314) rotate(-270.000000) translate(-14.768946, -100.130314) " font-family="PlayfairDisplaySC-Regular, Playfair Display SC" font-size="14.8613678" font-weight="normal" letter-spacing="1.48613684" fill="#000000">
                            <tspan x="-45.7310536" y="106.130314">Stephen King</tspan>
                        </text>
                        <g id="Keyhole" transform="translate(9.907579, 4.953789)">
                            <rect id="Container" fill="#000000" x="1.98151571" y="19.3197782" width="6.43992606" height="6.43992606"></rect>
                            <text id="II" font-family="PlayfairDisplaySC-Bold, Playfair Display SC" font-size="4.95378928" font-weight="bold" fill="#FFFFFF">
                                <tspan x="3.33885397" y="23.8243993">II</tspan>
                            </text>
                            <path d="M5.20147874,0 C8.07417613,0 10.4029575,2.22216039 10.4029575,4.96333415 C10.4029575,6.75643878 9.40648148,8.32745972 7.9131182,9.19968138 L9.60272999,19.8151571 L0.800227499,19.8151571 L2.41838357,9.15718439 C0.964773996,8.27701797 0,6.72768521 0,4.96333415 C0,2.22216039 2.32878136,0 5.20147874,0 Z" fill="#000000"></path>
                        </g>
                    </g>
                    <g id="Book-1">
                        <rect id="Book-Shape" stroke="#000000" stroke-width="1.98151571" fill="#FFFFFF" x="0" y="0" width="24.7689464" height="268" rx="1.48613678"></rect>
                        <g id="Title" transform="translate(4.499031, 169.419593)" fill="#000000" font-family="PlayfairDisplaySC-Regular, Playfair Display SC" font-weight="normal">
                            <text id="The-Dark-Tower-I" transform="translate(3.646994, 43.590573) rotate(-270.000000) translate(-3.646994, -43.590573) " font-size="4.95378928" letter-spacing="0.512460935">
                                <tspan x="-22.8530055" y="45.590573">The Dark Tower I</tspan>
                            </text>
                            <text id="The-Gunslinger" transform="translate(9.925194, 43.747689) rotate(-270.000000) translate(-9.925194, -43.747689) " font-size="8.9168207" letter-spacing="0.922429736">
                                <tspan x="-33.5748059" y="47.7476895">The Gunslinger</tspan>
                            </text>
                        </g>
                        <text id="Stephen-King" transform="translate(12.292052, 100.130314) rotate(-270.000000) translate(-12.292052, -100.130314) " font-family="PlayfairDisplaySC-Regular, Playfair Display SC" font-size="14.8613678" font-weight="normal" letter-spacing="1.48613684" fill="#000000">
                            <tspan x="-48.2079482" y="106.130314">Stephen King</tspan>
                        </text>
                        <g id="Keyhole" transform="translate(6.935305, 4.953789)">
                            <rect id="Container" fill="#000000" x="1.98151571" y="19.3197782" width="6.43992606" height="6.43992606"></rect>
                            <text id="I" font-family="PlayfairDisplaySC-Bold, Playfair Display SC" font-size="4.95378928" font-weight="bold" fill="#FFFFFF">
                                <tspan x="4.27016636" y="23.8243993">I</tspan>
                            </text>
                            <path d="M5.20147874,0 C8.07417613,0 10.4029575,2.22216039 10.4029575,4.96333415 C10.4029575,6.75643878 9.40648148,8.32745972 7.9131182,9.19968138 L9.60272999,19.8151571 L0.800227499,19.8151571 L2.41838357,9.15718439 C0.964773996,8.27701797 0,6.72768521 0,4.96333415 C0,2.22216039 2.32878136,0 5.20147874,0 Z" fill="#000000"></path>
                        </g>
                    </g>
                </g>
            </g>
        </g>
    </g>
</svg>