<?xml version="1.0" encoding="UTF-8"?>
<svg width="190px" height="202px" viewBox="0 0 190 202" version="1.1" xmlns="http://www.w3.org/2000/svg" xmlns:xlink="http://www.w3.org/1999/xlink">
    <title>Dreamcast Controller</title>
    <g id="Portfolio-Website" stroke="none" stroke-width="1" fill="none" fill-rule="evenodd">
        <g id="Home" transform="translate(-151.000000, -671.000000)">
            <g id="Vectors" transform="translate(-118.000000, 612.000000)">
                <g id="Dreamcast-Controller" transform="translate(270.000000, 60.000000)">
                    <path d="M87.4284927,159.442745 L88.7719374,176.376419 L91.0343557,178.510595 C90.7360693,184.447567 89.534115,189.627584 87.4284927,194.050646 C88.2144054,196.319891 90.0453329,197.062569 92.9212752,196.278681 C95.1824195,189.63052 96.5174181,183.715317 96.9262709,178.533072 L99.4762853,176.73819 L101.040922,159.442745 C97.8897424,158.738238 95.5469377,158.385985 94.0125077,158.385985 C92.4780778,158.385985 90.2834061,158.738238 87.4284927,159.442745 Z" id="Cord" fill="#000000"></path>
                    <path d="M94.0529905,1.16316366 C94.0530331,1.16349868 94.0530756,1.1638337 94.0531182,1.16416872 L93.9841743,1.16316366 C116.148583,1.42033317 134.442773,10.301741 148.866743,27.8073871 L174.677174,34.6975591 C176.540867,35.6324608 177.930728,36.963766 178.846758,38.6914747 C180.220804,41.2830376 185.053064,53.7257799 186.630109,68.943285 C188.689881,91.6009693 188.4685,112.94925 185.965966,132.988127 C182.212167,163.046443 180.259936,175.327161 164.56334,197.483951 C163.538716,198.956716 162.401587,199.693098 161.151951,199.693098 C159.902314,199.693098 158.868196,199.16199 158.049595,198.099775 L148.866743,169.957021 C147.872506,167.093259 145.382987,165.300446 141.398184,164.578582 C135.580795,163.524737 112.331366,158.76983 94.0182515,158.516314 C75.7057993,158.76983 52.4563696,163.524737 46.6389812,164.578582 C42.6541782,165.300446 40.1646584,167.093259 39.1704218,169.957021 L39.1704218,169.957021 L29.98757,198.099775 C29.1689689,199.16199 28.1348504,199.693098 26.8852143,199.693098 C25.6355782,199.693098 24.4984485,198.956716 23.4738252,197.483951 C7.77722854,175.327161 5.82499827,163.046443 2.07119845,132.988127 C-0.431334766,112.94925 -0.666096696,91.6663666 1.36691266,69.1394769 C2.94395861,53.9219719 7.8163612,41.2830376 9.19040651,38.6914747 C10.1064367,36.963766 11.4962981,35.6324608 13.3599908,34.6975591 L13.3599908,34.6975591 L39.1704218,27.8073871 C53.5943919,10.301741 71.8885815,1.42033317 94.0529905,1.16316366 L93.9840466,1.16416872 C93.9840892,1.1638337 93.9841317,1.16349868 93.9841743,1.16316366 Z" id="Combined-Shape" stroke="#000000" stroke-width="1.8957346" fill="#FFFFFF"></path>
                    <g id="Background-Lines" transform="translate(26.212696, 0.000000)" stroke="#000000" stroke-opacity="0.396416084" stroke-width="0.666666667">
                        <path d="M30.5545331,124.486572 C20.0847917,140.472328 14.0073723,156.152727 12.3222749,171.527771" id="Path-7"></path>
                        <path d="M123.445528,124.486572 C112.975787,140.472328 106.898368,156.152727 105.21327,171.527771" id="Path-7-Copy" transform="translate(114.329399, 148.007171) scale(-1, 1) translate(-114.329399, -148.007171) "></path>
                        <path d="M36.2752836,9.09089415 L36.2752836,63.9087093 C36.0133526,72.8754516 39.2678106,80.2354381 46.0386577,85.988669 C52.8095048,91.7418999 60.1873465,94.6506459 68.1721828,94.7149068" id="Path-6"></path>
                        <path d="M68.186816,8.77493838 L68.186816,63.5897077 C67.924885,72.5559518 71.179343,79.9155294 77.9501901,85.6684407 C84.7210372,91.4213519 92.0988789,94.4368406 100.083715,94.7149068" id="Path-6-Copy" transform="translate(84.127949, 51.744923) scale(-1, 1) translate(-84.127949, -51.744923) "></path>
                        <circle id="Line" cx="67.7725118" cy="67.8920739" r="67.7725118"></circle>
                    </g>
                    <path d="M94.3011633,126.227819 C96.97323,129.506564 98.8346978,132.12556 99.8855668,134.084807 C100.936436,136.044054 102.07963,138.806914 103.315148,142.373385 C99.4167672,143.440344 96.4121055,143.973823 94.3011633,143.973823 C92.190221,143.973823 89.1964435,143.5756 85.3198308,142.779155 C86.3344377,139.042894 87.394188,136.144778 88.4990816,134.084807 C89.6039751,132.024836 91.5380024,129.40584 94.3011633,126.227819 Z" id="Triangle" stroke="#000000" stroke-width="0.947867299" fill="#FFFFFF" stroke-linejoin="round"></path>
                    <g id="Buttons" transform="translate(133.637656, 51.936308)" fill="#000000">
                        <circle id="Oval" cx="7.26698262" cy="21.8009479" r="7.26698262"></circle>
                        <circle id="Oval-Copy" cx="23.6966825" cy="7.26698262" r="7.26698262"></circle>
                        <circle id="Oval-Copy-2" cx="41.0742496" cy="22.7488152" r="7.26698262"></circle>
                        <circle id="Oval-Copy-3" cx="24.6445498" cy="37.9146919" r="7.26698262"></circle>
                    </g>
                    <g id="Directional-Pad" transform="translate(20.209536, 83.934453)" fill="#000000">
                        <path d="M12.7650552,0.373797557 C14.411525,0.124599186 15.6857325,1.43680048e-13 16.5876777,1.43680048e-13 C17.4896175,1.43680048e-13 18.7638151,0.124597679 20.4102703,0.373793037 C21.0282046,0.467291031 21.4849921,0.998416878 21.4849921,1.62338456 L21.4849921,30.8220393 C21.4849985,31.4144169 21.0735512,31.9273089 20.4952738,32.0557863 C18.8166648,32.4287272 17.5141328,32.6151976 16.5876777,32.6151976 C15.6612287,32.6151976 14.3587075,32.4287296 12.6801142,32.0557935 C12.1018189,31.9273436 11.6903633,31.4144417 11.6903633,30.8220526 L11.6903633,1.62339941 C11.6903528,0.998440433 12.1471338,0.46732191 12.7650552,0.373797557 Z" id="Rectangle"></path>
                        <path d="M12.7650552,0.373797557 C14.411525,0.124599186 15.6857325,0 16.5876777,0 C17.4896175,0 18.7638151,0.124597679 20.4102703,0.373793037 C21.0282046,0.467291031 21.4849921,0.998416878 21.4849921,1.62338456 L21.4849921,30.8220393 C21.4849985,31.4144169 21.0735512,31.9273089 20.4952738,32.0557863 C18.8166648,32.4287272 17.5141328,32.6151976 16.5876777,32.6151976 C15.6612287,32.6151976 14.3587075,32.4287296 12.6801142,32.0557935 C12.1018189,31.9273436 11.6903633,31.4144417 11.6903633,30.8220526 L11.6903633,1.62339941 C11.6903528,0.998440433 12.1471338,0.46732191 12.7650552,0.373797557 Z" id="Rectangle" transform="translate(16.587678, 16.307599) rotate(-270.000000) translate(-16.587678, -16.307599) "></path>
                    </g>
                    <g id="Analog-Stick" transform="translate(5.675571, 37.718298)">
                        <circle id="Oval" stroke="#000000" stroke-width="0.666666667" fill="#FFFFFF" cx="20.5371248" cy="20.5371248" r="20.5371248"></circle>
                        <circle id="Oval" stroke="#000000" stroke-width="0.947867299" cx="19.7472354" cy="18.4834123" r="13.4281201"></circle>
                        <circle id="Oval" fill="#000000" cx="19.1153239" cy="16.9036335" r="11.5323855"></circle>
                    </g>
                    <path d="M74.2600323,31.8351443 C83.2824166,30.060289 89.866575,29.1728614 94.0125077,29.1728614 C98.180518,29.1728614 105.154471,30.0697655 114.934366,31.8635737 C116.434467,32.1387202 117.523912,33.4461632 117.523912,34.9712887 L117.523912,68.4837634 C117.523908,70.0530479 116.372121,71.3845053 114.819182,71.6104086 C105.072046,73.0283066 98.1273876,73.7372556 93.9852075,73.7372556 C89.8685668,73.7372556 83.3340167,73.037022 74.3815574,71.6365547 C72.8438202,71.395997 71.710326,70.0714006 71.710326,68.5149613 L71.710326,34.9352916 C71.7103216,33.4254353 72.7785684,32.1265732 74.2600323,31.8351443 Z" id="VMU-Window" stroke="#000000" stroke-width="0.666666667"></path>
                    <g id="Logo" transform="translate(82.136866, 6.148150)">
                        <text id="Dreamcast" font-family="HelveticaNeue-Medium, Helvetica Neue" font-size="5.05529226" font-weight="400" fill="#000000">
                            <tspan x="0" y="16.0330233">Dreamcast</tspan>
                        </text>
                        <path d="M19.1662346,5.6910077 C17.7631524,1.89700257 15.3238547,-5.61250186e-15 11.8483412,-5.61250186e-15 C8.3728278,-5.61250186e-15 6.12454254,1.61535379 5.10348544,4.84606138 C4.64100409,7.58055693 5.57818021,9.53755897 7.91501379,10.7170675 C10.2518474,11.896576 12.9235506,11.5444908 15.9301235,9.660812 C16.5693663,9.14577595 16.729177,8.04390377 16.4095556,6.35519546 C16.0899342,4.66648715 14.8854852,3.31836614 12.7962085,2.31083243 C10.9496564,2.18673764 9.55005708,2.6572692 8.59741064,3.72242711 C7.6447642,4.78758502 7.41729858,6.15992885 7.91501379,7.83945859 C8.69416483,8.75835159 9.58270934,9.21779809 10.5806473,9.21779809 C11.5785853,9.21779809 12.6396721,8.75835159 13.7639076,7.83945859 C14.3419276,6.75994066 14.2337834,5.88930916 13.4394749,5.22756408 C12.6451664,4.565819 11.8779418,4.26388855 11.1378012,4.32177274 C9.95835528,4.3845423 9.51948653,5.06234987 9.82119492,6.35519546 C10.2247558,7.06031667 10.9265461,7.27542084 11.9265658,7.00050795" id="Logomark" stroke="#000000" stroke-width="1.26382306" stroke-linecap="round"></path>
                    </g>
                </g>
            </g>
        </g>
    </g>
</svg>