<?xml version="1.0" encoding="UTF-8"?>
<svg width="402px" height="254px" viewBox="0 0 402 254" version="1.1" xmlns="http://www.w3.org/2000/svg" xmlns:xlink="http://www.w3.org/1999/xlink">
    <title>Web Design</title>
    <defs>
        <rect id="path-1" x="0" y="0" width="337.061381" height="239.688093" rx="2.80884484"></rect>
    </defs>
    <g id="Portfolio-Website" stroke="none" stroke-width="1" fill="none" fill-rule="evenodd">
        <g id="Home" transform="translate(-655.000000, -626.000000)">
            <g id="Vectors" transform="translate(-398.000000, 612.000000)">
                <g id="Web-Design" transform="translate(1056.000000, 17.000000)">
                    <g id="Browser">
                        <mask id="mask-2" fill="white">
                            <use xlink:href="#path-1"></use>
                        </mask>
                        <rect stroke="#000000" stroke-width="2.00631774" x="-1.00315887" y="-1.00315887" width="339.067699" height="241.694411" rx="2.80884484"></rect>
                        <path d="M337.061381,-1.51927791e-13 L337.061381,13.9425597 L0,13.9425597 L0,-1.51927791e-13 L337.061381,-1.51927791e-13 Z M97.7073283,3.48563993 L29.867093,3.48563993 C29.349999,3.48563993 28.9308114,3.90482748 28.9308114,4.42192154 L28.9308114,4.42192154 L28.9308114,9.52063817 C28.9308114,10.0377322 29.349999,10.4569198 29.867093,10.4569198 L29.867093,10.4569198 L97.7073283,10.4569198 C98.2244224,10.4569198 98.64361,10.0377322 98.64361,9.52063817 L98.64361,9.52063817 L98.64361,4.42192154 C98.64361,3.90482748 98.2244224,3.48563993 97.7073283,3.48563993 L97.7073283,3.48563993 Z M7.66840784,5.22845989 C6.70587495,5.22845989 5.92558788,6.00874697 5.92558788,6.97127986 C5.92558788,7.93381274 6.70587495,8.71409982 7.66840784,8.71409982 C8.63094073,8.71409982 9.4112278,7.93381274 9.4112278,6.97127986 C9.4112278,6.00874697 8.63094073,5.22845989 7.66840784,5.22845989 Z M14.6396877,5.22845989 C13.6771548,5.22845989 12.8968677,6.00874697 12.8968677,6.97127986 C12.8968677,7.93381274 13.6771548,8.71409982 14.6396877,8.71409982 C15.6022206,8.71409982 16.3825077,7.93381274 16.3825077,6.97127986 C16.3825077,6.00874697 15.6022206,5.22845989 14.6396877,5.22845989 Z M21.6109676,5.22845989 C20.6484347,5.22845989 19.8681476,6.00874697 19.8681476,6.97127986 C19.8681476,7.93381274 20.6484347,8.71409982 21.6109676,8.71409982 C22.5735004,8.71409982 23.3537875,7.93381274 23.3537875,6.97127986 C23.3537875,6.00874697 22.5735004,5.22845989 21.6109676,5.22845989 Z" id="Combined-Shape" fill="#000000"></path>
                        <rect id="Footer" stroke="#000000" stroke-width="0.668772581" fill="#FFFFFF" x="8.02527098" y="219.357407" width="320.342066" height="10.0315887"></rect>
                        <rect id="Highlight" stroke="#000000" stroke-width="0.668772581" fill="#FFFFFF" x="228.720223" y="142.44856" width="99.6471146" height="66.2084856"></rect>
                        <rect id="Highlight" stroke="#000000" stroke-width="0.668772581" fill="#FFFFFF" x="118.372747" y="142.44856" width="99.6471146" height="66.2084856"></rect>
                        <rect id="Highlight" stroke="#000000" stroke-width="0.668772581" fill="#FFFFFF" x="8.02527098" y="142.44856" width="99.6471146" height="66.2084856"></rect>
                        <rect id="Hero" stroke="#000000" stroke-width="0.668772581" fill="#FFFFFF" x="8.02527098" y="65.539713" width="320.342066" height="66.2084856"></rect>
                        <rect id="Header" stroke="#000000" stroke-width="0.668772581" fill="#FFFFFF" x="8.02527098" y="24.4101992" width="320.342066" height="30.4291525"></rect>
                    </g>
                    <g id="Phone" transform="translate(303.000000, 59.000000)">
                        <path d="M80.5492576,0 C88.4475777,3.2545897e-16 94.8504313,6.40285355 94.8504313,14.3011737 L94.85,43.955 L95.0607427,43.9550779 C95.2930462,43.9550779 95.4813654,44.1433971 95.4813654,44.3757007 L95.4813654,63.9346588 C95.4813654,64.1669623 95.2930462,64.3552815 95.0607427,64.3552815 L94.85,64.355 L94.8504313,177.502803 C94.8504313,185.401123 88.4475777,191.803976 80.5492576,191.803976 L14.9321078,191.803976 C7.03378768,191.803976 0.630934133,185.401123 0.630934133,177.502803 L0.63,68.771 L0.420622755,68.7718205 C0.188319222,68.7718205 1.3947128e-16,68.5835012 0,68.3511977 L0,56.1531378 C-8.39601291e-17,55.9208343 0.188319222,55.7325151 0.420622755,55.7325151 L0.63,55.732 L0.63,52.367 L0.420622755,52.367533 C0.188319222,52.367533 1.3947128e-16,52.1792138 0,51.9469103 L0,39.7488504 C-8.39601291e-17,39.5165468 0.188319222,39.3282276 0.420622755,39.3282276 L0.63,39.328 L0.63,33.439 L0.420622755,33.439509 C0.188319222,33.439509 1.3947128e-16,33.2511898 0,33.0188863 L0,27.3404791 C-8.39601291e-17,27.1081755 0.188319222,26.9198563 0.420622755,26.9198563 L0.63,26.919 L0.630934133,14.3011737 C0.630934133,6.40285355 7.03378768,-3.2545897e-16 14.9321078,0 L80.5492576,0 Z" id="Phone-Container" fill="#000000"></path>
                        <rect id="Screen" fill="#FFFFFF" x="4.41653893" y="4.20622755" width="86.6482876" height="183.601833" rx="10.0949461"></rect>
                        <rect id="Footer" stroke="#000000" stroke-width="0.626959248" fill="#FFFFFF" x="11.0393599" y="171.506941" width="73.4026457" height="9.67829825"></rect>
                        <rect id="Highlight" stroke="#000000" stroke-width="0.626959248" fill="#FFFFFF" x="11.0393599" y="133.650893" width="73.4026457" height="33.0228612"></rect>
                        <rect id="Highlight" stroke="#000000" stroke-width="0.626959248" fill="#FFFFFF" x="11.0393599" y="96.0051564" width="73.4026457" height="32.8125498"></rect>
                        <rect id="Highlight" stroke="#000000" stroke-width="0.626959248" fill="#FFFFFF" x="11.0393599" y="58.1491085" width="73.4026457" height="33.0228612"></rect>
                        <rect id="Hero" stroke="#000000" stroke-width="0.626959248" fill="#FFFFFF" x="11.0393599" y="28.7055156" width="73.4026457" height="24.6104061"></rect>
                        <rect id="Header" stroke="#000000" stroke-width="0.626959248" fill="#FFFFFF" x="11.0393599" y="10.8290485" width="73.4026457" height="13.0124816"></rect>
                    </g>
                </g>
            </g>
        </g>
    </g>
</svg>