<?xml version="1.0" encoding="UTF-8"?>
<svg width="224px" height="252px" viewBox="0 0 224 252" version="1.1" xmlns="http://www.w3.org/2000/svg" xmlns:xlink="http://www.w3.org/1999/xlink">
    <title>Wisconsin Mug</title>
    <g id="Portfolio-Website" stroke="none" stroke-width="1" fill="none" fill-rule="evenodd">
        <g id="Home" transform="translate(-20.000000, -621.000000)">
            <g id="Vectors" transform="translate(22.000000, 612.000000)">
                <g id="Wisconsin-Mug" transform="translate(0.000000, 9.000000)">
                    <path d="M58.6417739,223.523785 C19.547258,221.753127 7.15686734e-14,203.272897 7.15686734e-14,168.083097 C7.15686734e-14,132.893297 19.547258,113.921005 58.6417739,111.16622 L58.6417739,111.16622 L58.6417739,90.6515581 C58.6417739,87.8701429 60.8965564,85.6153604 63.6779716,85.6153604 L214.763902,85.6153604 C217.545317,85.6153604 219.800099,87.8701429 219.800099,90.6515581 L219.800099,244.255587 C219.800099,247.037002 217.545317,249.291785 214.763902,249.291785 L63.6779716,249.291785 L63.6779716,249.291785 C60.8965564,249.291785 58.6417739,247.037002 58.6417739,244.255587 Z M58.6417739,128.186731 C28.7250958,126.376825 13.7667567,139.675614 13.7667567,168.083097 C13.7667567,196.490581 28.7250958,209.297306 58.6417739,206.503274 L58.6417739,206.503274 Z" id="Combined-Shape" stroke="#000000" stroke-width="3.77714825" fill="#FFFFFF"></path>
                    <path d="M152.943884,157.745672 C152.942078,158.526089 152.718494,159.036493 152.273132,159.276886 L153.598954,169.455013 C158.300239,170.02397 163.037978,172.744001 167.81217,177.615106 L167.81217,215.179189 L197.925977,209.574964 L197.925977,216.531533 L221.688674,206.132633 L221.688674,242.834644 L217.766433,248.032735 L61.1231206,248.032735 L56.7531998,242.779856 L56.7531998,194.161024 L70.2429706,183.567276 L90.5729769,183.567276 L101.852743,194.161024 L101.852743,206.132633 L115.002354,216.531533 L135.939503,216.531533 L135.939503,177.615106 C140.389136,172.912527 144.872745,170.214755 149.390328,169.52179 L150.309387,159.276886 C149.646133,158.179811 149.81976,157.408361 150.83027,156.962539 C151.840779,156.516716 152.545318,156.77776 152.943884,157.745672 Z" id="Combined-Shape" fill="#000000"></path>
                    <text id="Wisconsin" font-family="HelveticaNeue-CondensedBold, Helvetica Neue" font-size="10.0723953" font-style="condensed" font-weight="bold" letter-spacing="1.88857421" fill="#000000">
                        <tspan x="102.708504" y="147.198615">WISCONSIN</tspan>
                    </text>
                    <path d="M125.329076,79.4846667 C134.839208,70.6319322 137.497978,58.6464599 133.305388,43.5282496 C129.112798,28.4100393 130.245281,14.0855158 136.702838,0.554679169 C135.267795,16.8934034 136.462818,31.2179268 140.287908,43.5282496 C144.112997,55.8385724 139.12672,67.8240447 125.329076,79.4846667 Z" id="Steam" fill="#000000" transform="translate(133.431181, 40.019673) rotate(-4.000000) translate(-133.431181, -40.019673) "></path>
                    <path d="M146.145708,57.9162732 C149.101416,55.2332046 149.92775,51.6006722 148.624711,47.018676 C147.321673,42.4366798 147.673643,38.0952325 149.680624,33.9943343 C149.234619,38.9462413 149.606027,43.2876886 150.794848,47.018676 C151.983669,50.7496634 150.433956,54.3821958 146.145708,57.9162732 Z" id="Steam" fill="#000000" transform="translate(148.663807, 45.955304) rotate(-4.000000) translate(-148.663807, -45.955304) "></path>
                    <path d="M123.482819,69.8772427 C126.438526,67.1941741 127.264861,63.5616416 125.961822,58.9796454 C124.658783,54.3976492 125.010754,50.056202 127.017734,45.9553037 C126.571729,50.9072108 126.943137,55.248658 128.131959,58.9796454 C129.32078,62.7106328 127.771066,66.3431653 123.482819,69.8772427 Z" id="Steam" fill="#000000" transform="translate(126.000918, 57.916273) rotate(-4.000000) translate(-126.000918, -57.916273) "></path>
                </g>
            </g>
        </g>
    </g>
</svg>