<?xml version="1.0" encoding="UTF-8"?>
<svg width="43px" height="50px" viewBox="0 0 43 50" version="1.1" xmlns="http://www.w3.org/2000/svg" xmlns:xlink="http://www.w3.org/1999/xlink">
    <title>Dave Inverse</title>
    <g id="Portfolio-Website" stroke="none" stroke-width="1" fill="none" fill-rule="evenodd" stroke-linejoin="round">
        <g id="Dave" transform="translate(-26.000000, -33.000000)" fill="#FFFFFF" stroke="#FFFFFF" stroke-width="0.820512821">
            <path d="M47.0223284,34 C45.869439,34.747734 44.8430952,36.2055815 43.943297,38.3735426 C47.3399321,35.3150457 51.0218357,33.9632143 54.9890076,34.3180485 C53.0249389,34.8917045 51.4417203,36.0799203 50.239352,37.8826961 C56.417354,35.3955735 63.3019333,38.4019248 60.6803969,38.1648493 C58.932706,38.006799 57.7036993,38.6129554 56.9933767,39.9833188 C61.5111462,40.8081858 65.1800206,42.9375247 68,46.3713355 C64.4253886,45.028464 62.3456407,45.1708763 61.760756,46.7985723 C63.9703729,47.03114 65.8786855,51.9573023 64.9072011,50.6326845 C64.2595447,49.749606 63.2107297,49.2195252 61.760756,49.042442 C63.1039248,50.9516041 63.5156261,55.1688117 62.99586,61.6940648 C63.7201653,61.7418184 64.2338907,62.2764372 64.5370313,63.2970878 C64.9802859,64.7894914 64.5553858,66.6044277 63.262331,68.741897 C62.5051972,69.9692426 61.4752759,70.0724284 60.1725671,69.0514543 C56.8179313,77.7038355 52.3738088,82 46.8631977,82 L46.6657,81.9983542 C40.9136539,81.9023218 36.0262541,77.6034065 32.0166589,69.0464441 C30.7110055,70.0727003 29.6793548,69.9708715 28.9212161,68.741897 C27.6281613,66.6044277 27.2032612,64.7894914 27.6465158,63.2970878 C27.8974117,62.4523411 28.2925609,61.9405325 28.8319634,61.7616621 L27,52.0160703 C30.6370666,49.2516361 32.0007951,45.7657911 31.0911856,41.5585354 C31.6072643,42.5595951 33.0785487,43.101808 35.5050388,43.185174 C37.5627904,40.3643091 38.1773729,38.0635635 37.3487863,36.2829371 C38.84212,36.8504714 39.4794902,38.1084743 39.2608969,40.0569457 C40.5859602,37.5423869 43.173104,35.523405 47.0223284,34 Z" id="Dave-Inverse"></path>
        </g>
    </g>
</svg>