<?xml version="1.0" encoding="UTF-8"?>
<svg width="237px" height="314px" viewBox="0 0 237 314" version="1.1" xmlns="http://www.w3.org/2000/svg" xmlns:xlink="http://www.w3.org/1999/xlink">
    <!-- Generator: Sketch 63.1 (92452) - https://sketch.com -->
    <title>Shield</title>
    <desc>Created with Sketch.</desc>
    <defs>
        <path d="M122.081542,206.968168 C137.380446,206.968168 149.786902,202.33963 159.300908,193.082554 C168.814914,183.825478 173.571917,171.666572 173.571917,156.605837 C173.571917,146.629299 171.396604,137.875846 167.045979,130.345478 C162.695353,122.81511 156.647504,116.987469 148.902434,112.862554 C141.157363,108.73764 132.217066,106.53129 122.081542,106.243505 C108.121291,105.95572 99.4200395,105.811828 95.977786,105.811828 C79.4358455,105.811828 67.913858,107.34668 61.4118236,110.416384 C54.9097891,113.486088 50.2723087,119.097891 47.4993823,127.251792 L47.4993823,127.251792 L49.0770818,127.827361 C50.5113541,125.237299 51.8978173,123.102895 53.2364715,121.424151 C54.5751256,119.745406 56.5352978,117.994716 59.1169879,116.172079 C64.0891319,112.718662 72.5513384,110.848061 84.5036076,110.560276 L84.5036076,110.560276 L84.5036076,197.327379 C84.2167532,199.629657 83.2127625,201.572204 81.4916358,203.15502 C79.770509,204.737837 77.7147187,205.529245 75.3242649,205.529245 L75.3242649,205.529245 L73.6031381,205.529245 L73.4597109,206.968168 L122.081542,206.968168 Z M122.081542,202.651397 L93.8263776,202.651397 L93.8263776,110.560276 L122.081542,110.560276 C130.113467,110.560276 137.213115,112.478841 143.380486,116.315971 C149.547856,120.153101 154.328764,125.549065 157.723209,132.503864 C161.117653,139.458662 162.814875,147.492653 162.814875,156.605837 C162.814875,170.419505 159.061863,181.547182 151.555838,189.988868 C144.049813,198.430554 134.225047,202.651397 122.081542,202.651397 L122.081542,202.651397 Z" id="path-1"></path>
        <filter x="-0.8%" y="-1.0%" width="101.6%" height="102.0%" filterUnits="objectBoundingBox" id="filter-2">
            <feGaussianBlur stdDeviation="0.5" in="SourceAlpha" result="shadowBlurInner1"></feGaussianBlur>
            <feOffset dx="0" dy="1" in="shadowBlurInner1" result="shadowOffsetInner1"></feOffset>
            <feComposite in="shadowOffsetInner1" in2="SourceAlpha" operator="arithmetic" k2="-1" k3="1" result="shadowInnerInner1"></feComposite>
            <feColorMatrix values="0 0 0 0 0   0 0 0 0 0   0 0 0 0 0  0 0 0 0.199956294 0" type="matrix" in="shadowInnerInner1"></feColorMatrix>
        </filter>
    </defs>
    <g id="Design-Stories-Templates/Pages" stroke="none" stroke-width="1" fill="none" fill-rule="evenodd">
        <g id="Design-Stories---Homepage" transform="translate(-982.000000, -251.000000)">
            <g id="Hero" transform="translate(120.000000, 171.000000)">
                <g id="Hero-Finish">
                    <g id="Shield/Sword-Area" transform="translate(863.000000, 0.000000)">
                        <g id="Sword/Shield">
                            <g id="Shield" transform="translate(0.000000, 80.000000)">
                                <path d="M116.419405,312.314666 C80.8655089,296.229127 55.7800449,282.180659 41.1630128,270.169263 C26.3983339,258.03654 15.6566156,242.59733 8.93785782,223.851634 L8.93785782,223.851634 L0,21.7634244 C42.1539533,21.7634244 81.32062,14.8727442 117.5,1.09138381 L117.5,1.09138381 C153.67938,14.8727442 192.846047,21.7634244 235,21.7634244 L226.062142,223.851634 C219.343384,242.59733 208.601666,258.03654 193.836987,270.169263 C179.072308,282.301986 153.626646,296.513142 117.5,312.80273 Z" id="Shield-Border" stroke-opacity="0.403709572" stroke="#0C1821" fill="#FFFFFF"></path>
                                <path d="M116.507002,300.355468 C84.1662195,285.439688 61.3474058,272.412698 48.0505605,261.274497 C34.6180331,250.022642 24.8454924,235.704359 18.7329383,218.319649 L18.7329383,218.319649 L10.6015038,30.9035723 C48.9520929,30.9035723 84.5849249,24.5131735 117.5,11.732376 L117.5,11.732376 C150.415075,24.5131735 186.047907,30.9035723 224.398496,30.9035723 L216.267062,218.319649 C210.154508,235.704359 200.381967,250.022642 186.949439,261.274497 C173.516912,272.526353 150.367099,285.705741 117.5,300.812663 Z" fill="#5FBFF9"></path>
                                <path d="M235,0.682114883 C198.82062,14.4822399 159.653953,21.3823023 117.5,21.3823023 L126.437858,223.745674 C133.156616,242.516894 143.898334,257.977126 158.663013,270.126368 C173.427692,282.275611 198.873354,296.506117 235,312.817885 L235,0.682114883 Z" id="Shadow" fill-opacity="0.0566" fill="#000000" transform="translate(176.250000, 156.750000) scale(-1, 1) translate(-176.250000, -156.750000) "></path>
                                <g id="D" fill-rule="nonzero">
                                    <use fill="#FFFFFF" xlink:href="#path-1"></use>
                                    <use fill="black" fill-opacity="1" filter="url(#filter-2)" xlink:href="#path-1"></use>
                                </g>
                            </g>
                        </g>
                    </g>
                </g>
            </g>
        </g>
    </g>
</svg>