<?xml version="1.0" encoding="UTF-8"?>
<svg width="237px" height="314px" viewBox="0 0 237 314" version="1.1" xmlns="http://www.w3.org/2000/svg" xmlns:xlink="http://www.w3.org/1999/xlink">
    <!-- Generator: Sketch 63.1 (92452) - https://sketch.com -->
    <title>Shield</title>
    <desc>Created with Sketch.</desc>
    <defs>
        <linearGradient x1="37.0382696%" y1="35.1384256%" x2="66.8734593%" y2="88.4878231%" id="linearGradient-1">
            <stop stop-color="#FFFFFF" offset="0%"></stop>
            <stop stop-color="#BFBFBF" offset="100%"></stop>
        </linearGradient>
        <linearGradient x1="38.3636878%" y1="12.292855%" x2="61.6156337%" y2="95.0083588%" id="linearGradient-2">
            <stop stop-color="#5FBFF9" offset="0%"></stop>
            <stop stop-color="#3C9FDB" offset="100%"></stop>
        </linearGradient>
        <linearGradient x1="38.4456199%" y1="37.343851%" x2="83.8219036%" y2="75.8778312%" id="linearGradient-3">
            <stop stop-color="#FFFFFF" offset="0%"></stop>
            <stop stop-color="#CDCDCD" offset="100%"></stop>
        </linearGradient>
        <path d="M122.081542,205.968168 C137.380446,205.968168 149.786902,201.33963 159.300908,192.082554 C168.814914,182.825478 173.571917,170.666572 173.571917,155.605837 C173.571917,145.629299 171.396604,136.875846 167.045979,129.345478 C162.695353,121.81511 156.647504,115.987469 148.902434,111.862554 C141.157363,107.73764 132.217066,105.53129 122.081542,105.243505 C108.121291,104.95572 99.4200395,104.811828 95.977786,104.811828 C79.4358455,104.811828 67.913858,106.34668 61.4118236,109.416384 C54.9097891,112.486088 50.2723087,118.097891 47.4993823,126.251792 L47.4993823,126.251792 L49.0770818,126.827361 C50.5113541,124.237299 51.8978173,122.102895 53.2364715,120.424151 C54.5751256,118.745406 56.5352978,116.994716 59.1169879,115.172079 C64.0891319,111.718662 72.5513384,109.848061 84.5036076,109.560276 L84.5036076,109.560276 L84.5036076,196.327379 C84.2167532,198.629657 83.2127625,200.572204 81.4916358,202.15502 C79.770509,203.737837 77.7147187,204.529245 75.3242649,204.529245 L75.3242649,204.529245 L73.6031381,204.529245 L73.4597109,205.968168 L122.081542,205.968168 Z M122.081542,201.651397 L93.8263776,201.651397 L93.8263776,109.560276 L122.081542,109.560276 C130.113467,109.560276 137.213115,111.478841 143.380486,115.315971 C149.547856,119.153101 154.328764,124.549065 157.723209,131.503864 C161.117653,138.458662 162.814875,146.492653 162.814875,155.605837 C162.814875,169.419505 159.061863,180.547182 151.555838,188.988868 C144.049813,197.430554 134.225047,201.651397 122.081542,201.651397 L122.081542,201.651397 Z" id="path-4"></path>
        <filter x="-0.8%" y="-1.0%" width="101.6%" height="102.0%" filterUnits="objectBoundingBox" id="filter-5">
            <feGaussianBlur stdDeviation="0.5" in="SourceAlpha" result="shadowBlurInner1"></feGaussianBlur>
            <feOffset dx="0" dy="1" in="shadowBlurInner1" result="shadowOffsetInner1"></feOffset>
            <feComposite in="shadowOffsetInner1" in2="SourceAlpha" operator="arithmetic" k2="-1" k3="1" result="shadowInnerInner1"></feComposite>
            <feColorMatrix values="0 0 0 0 0   0 0 0 0 0   0 0 0 0 0  0 0 0 0.199956294 0" type="matrix" in="shadowInnerInner1"></feColorMatrix>
        </filter>
        <linearGradient x1="47.6856402%" y1="84.1262712%" x2="56.6474214%" y2="0%" id="linearGradient-6">
            <stop stop-color="#000000" stop-opacity="0.02" offset="0%"></stop>
            <stop stop-color="#000000" stop-opacity="0.04" offset="100%"></stop>
        </linearGradient>
    </defs>
    <g id="Design-Stories-Templates/Pages" stroke="none" stroke-width="1" fill="none" fill-rule="evenodd">
        <g id="Design-Stories---Homepage" transform="translate(-1083.000000, -251.000000)">
            <g id="Hero" transform="translate(120.000000, 171.000000)">
                <g id="Hero-Finish">
                    <g id="Shield/Sword-Area" transform="translate(964.000000, 0.000000)">
                        <g id="Sword/Shield">
                            <g id="Shield" transform="translate(0.000000, 81.000000)">
                                <path d="M116.419405,311.314666 C80.8655089,295.229127 55.7800449,281.180659 41.1630128,269.169263 C26.3983339,257.03654 15.6566156,241.59733 8.93785782,222.851634 L8.93785782,222.851634 L0,20.7634244 C42.1539533,20.7634244 81.32062,13.8727442 117.5,0.091383812 L117.5,0.091383812 C153.67938,13.8727442 192.846047,20.7634244 235,20.7634244 L226.062142,222.851634 C219.343384,241.59733 208.601666,257.03654 193.836987,269.169263 C179.072308,281.301986 153.626646,295.513142 117.5,311.80273 Z" id="Shield-Border" stroke-opacity="0.199328016" stroke="#0C1821" fill="url(#linearGradient-1)"></path>
                                <path d="M116.507002,299.355468 C84.1662195,284.439688 61.3474058,271.412698 48.0505605,260.274497 C34.6180331,249.022642 24.8454924,234.704359 18.7329383,217.319649 L18.7329383,217.319649 L10.6015038,29.9035723 C48.9520929,29.9035723 84.5849249,23.5131735 117.5,10.732376 L117.5,10.732376 C150.415075,23.5131735 186.047907,29.9035723 224.398496,29.9035723 L216.267062,217.319649 C210.154508,234.704359 200.381967,249.022642 186.949439,260.274497 C173.516912,271.526353 150.367099,284.705741 117.5,299.812663 Z" stroke-opacity="0.853228802" stroke="#FFFFFF" fill="url(#linearGradient-2)"></path>
                                <g id="D" fill-rule="nonzero">
                                    <use fill="url(#linearGradient-3)" xlink:href="#path-4"></use>
                                    <use fill="black" fill-opacity="1" filter="url(#filter-5)" xlink:href="#path-4"></use>
                                </g>
                                <path d="M218.5,16.8178851 C187.401129,29.0645899 153.734462,35.1879422 117.5,35.1879422 L125.182754,214.772146 C130.958027,231.430372 140.191334,245.150312 152.882675,255.931967 C165.574016,266.713623 187.446458,279.342262 218.5,293.817885 L218.5,16.8178851 Z" id="Shadow" fill="url(#linearGradient-6)" transform="translate(168.000000, 155.317885) scale(-1, 1) translate(-168.000000, -155.317885) "></path>
                            </g>
                        </g>
                    </g>
                </g>
            </g>
        </g>
    </g>
</svg>