<?xml version="1.0" encoding="UTF-8"?>
<svg width="359px" height="209px" viewBox="0 0 359 209" version="1.1" xmlns="http://www.w3.org/2000/svg" xmlns:xlink="http://www.w3.org/1999/xlink">
    <title>laptop</title>
    <defs>
        <linearGradient x1="100%" y1="50%" x2="0%" y2="50%" id="linearGradient-1">
            <stop stop-color="#FFFFFF" stop-opacity="0.5" offset="0%"></stop>
            <stop stop-color="#FFFFFF" stop-opacity="0.5" offset="96.6884854%"></stop>
            <stop stop-color="#000000" stop-opacity="0.5" offset="100%"></stop>
        </linearGradient>
        <path d="M312.101609,-1.84741111e-13 C316.335646,-1.84741111e-13 317.87101,0.445167229 319.41891,1.28109822 C320.966811,2.11702922 322.181612,3.34372398 323.009438,4.90677904 C323.837264,6.4698341 324.278116,8.02022992 324.278116,12.2957194 L324.278116,192.002682 C324.278116,194.88802 324.077339,196.532268 323.692344,197.776874 L357.712766,197.776199 L357.712766,204.106572 L357.902736,204.106572 C351.657956,206.705875 345.393203,208.104471 339.108478,208.30236 L339.217,208.284 L339.08015,208.306926 C338.980262,208.320168 338.879571,208.326821 338.778718,208.326821 L19.968006,208.326821 C14.1399185,208.326821 7.48391652,206.920071 9.09494702e-13,204.106572 L0.189969605,204.106572 L0.189969605,197.776199 L34.2103917,197.776874 C33.8253969,196.532268 33.6246201,194.88802 33.6246201,192.002682 L33.6246201,12.2957194 C33.6246201,8.02022992 34.0654712,6.4698341 34.8932974,4.90677904 C35.7211237,3.34372398 36.935925,2.11702922 38.4838255,1.28109822 C40.031726,0.445167229 41.56709,-1.84741111e-13 45.8011265,-1.84741111e-13 L312.101609,-1.84741111e-13 Z M315.729483,14.1953819 L42.1732523,14.1953819 L42.1732523,186.841918 L315.729483,186.841918 L315.729483,14.1953819 Z" id="path-2"></path>
    </defs>
    <g id="DD-Portfolio" stroke="none" stroke-width="1" fill="none" fill-rule="evenodd">
        <g id="Projects-Loaded-Screen" transform="translate(-1021.000000, -152.000000)">
            <g id="laptop" transform="translate(1021.548632, 152.000000)">
                <use fill="#FCFCFC" xlink:href="#path-2"></use>
                <use fill-opacity="0.06" fill="url(#linearGradient-1)" xlink:href="#path-2"></use>
            </g>
        </g>
    </g>
</svg>