<?xml version="1.0" encoding="UTF-8"?>
<svg width="232px" height="120px" viewBox="0 0 232 120" version="1.1" xmlns="http://www.w3.org/2000/svg" xmlns:xlink="http://www.w3.org/1999/xlink">
    <title>NES Gamepad</title>
    <g id="Portfolio-Website" stroke="none" stroke-width="1" fill="none" fill-rule="evenodd">
        <g id="Home" transform="translate(-799.000000, -761.000000)">
            <g id="Vectors" transform="translate(22.000000, 612.000000)">
                <g id="NES-Gamepad" transform="translate(778.000000, 149.000000)">
                    <rect id="Container" stroke="#000000" stroke-width="1.81638667" fill="#FFFFFF" x="0" y="22.9318855" width="230" height="95.5873643" rx="3.1786772"></rect>
                    <rect id="Controls-Container" stroke="#000000" stroke-width="1.36229023" x="6.35735439" y="37.2359329" width="217.285291" height="75.6071076" rx="3.1786772"></rect>
                    <g id="A-button" transform="translate(180.957552, 79.239882)">
                        <text id="A" font-family="Orbitron-Black, Orbitron" font-size="7.03849951" font-weight="700" fill="#000000">
                            <tspan x="17.709773" y="30.7482725">A</tspan>
                        </text>
                        <rect id="Container" stroke="#000000" stroke-width="0.575" x="0" y="0" width="24.2941757" height="23.3859822" rx="2.27048371"></rect>
                        <circle id="A-Button" fill="#000000" cx="12.1470879" cy="11.6929911" r="10.1036525"></circle>
                    </g>
                    <g id="B-button" transform="translate(150.760118, 79.239882)">
                        <text id="B" font-family="Orbitron-Black, Orbitron" font-size="7.03849951" font-weight="700" fill="#000000">
                            <tspan x="18.1638697" y="30.7482725">B</tspan>
                        </text>
                        <rect id="Container" stroke="#000000" stroke-width="0.575" x="0" y="0" width="24.2941757" height="23.3859822" rx="2.27048371"></rect>
                        <circle id="B-Button" fill="#000000" cx="12.1470879" cy="11.6929911" r="10.1036525"></circle>
                    </g>
                    <text id="Nintendo" font-family="Nintender" font-size="8.85488648" font-weight="normal" fill="#000000">
                        <tspan x="155.755183" y="57.17769">Nintendo</tspan>
                    </text>
                    <g id="Copyright" transform="translate(199.121422, 49.723593)">
                        <circle id="Oval" stroke="#000000" stroke-width="0.575" cx="1.70286278" cy="1.70286278" r="1.70286278"></circle>
                        <text id="R" font-family="Arial-BoldMT, Arial" font-size="2.49753208" font-weight="bold" fill="#000000">
                            <tspan x="0.681145114" y="2.45409674">R</tspan>
                        </text>
                    </g>
                    <g id="Select/Start-Area" transform="translate(73.790721, 37.235933)">
                        <path d="M2.27048371,68.7956565 L63.1194472,68.7956565 C64.3734007,68.7956565 65.3899309,69.8121866 65.3899309,71.0661402 L65.3899309,75.6071076 L65.3899309,75.6071076 L0,75.6071076 L0,71.0661402 C-1.53565018e-16,69.8121866 1.01653018,68.7956565 2.27048371,68.7956565 Z" id="Overlay" stroke="#000000" stroke-width="0.908193485"></path>
                        <rect id="Select/Start-Container" stroke="#000000" stroke-width="0.575" x="0.908193485" y="42.4580454" width="63.5735439" height="21.5695953" rx="2.27048371"></rect>
                        <g id="Buttons" transform="translate(9.081935, 50.858835)" fill="#000000">
                            <rect id="Start-Button" x="29.7433366" y="0" width="17.709773" height="5.67620928" rx="2.83810464"></rect>
                            <rect id="Select-Button" x="0" y="0" width="17.709773" height="5.67620928" rx="2.83810464"></rect>
                        </g>
                        <rect id="Overlay" stroke="#000000" stroke-width="0.908193485" x="0" y="28.153998" width="65.3899309" height="10.6712734" rx="2.27048371"></rect>
                        <rect id="Overlay" stroke="#000000" stroke-width="0.908193485" x="0" y="14.076999" width="65.3899309" height="10.6712734" rx="2.27048371"></rect>
                        <path d="M0,0 L65.3899309,0 L65.3899309,8.40078973 C65.3899309,9.65474326 64.3734007,10.6712734 63.1194472,10.6712734 L2.27048371,10.6712734 C1.01653018,10.6712734 5.97654227e-16,9.65474326 0,8.40078973 L0,0 L0,0 Z" id="Overlay" stroke="#000000" stroke-width="0.908193485"></path>
                    </g>
                    <path d="M46.0908193,61.9842053 C46.5924008,61.9842053 46.9990128,62.3908174 46.9990128,62.8923988 L46.9986436,74.4712053 L58.5784798,74.4718657 C59.0800612,74.4718657 59.4866732,74.8784778 59.4866732,75.3800592 L59.4866732,86.278381 C59.4866732,86.7799625 59.0800612,87.1865745 58.5784798,87.1865745 L46.9986436,87.1862053 L46.9990128,98.7660415 C46.9990128,99.2676229 46.5924008,99.6742349 46.0908193,99.6742349 L35.1924975,99.6742349 C34.6909161,99.6742349 34.284304,99.2676229 34.284304,98.7660415 L34.2836436,87.1862053 L22.7048371,87.1865745 C22.2032557,87.1865745 21.7966436,86.7799625 21.7966436,86.278381 L21.7966436,75.3800592 C21.7966436,74.8784778 22.2032557,74.4718657 22.7048371,74.4718657 L34.2836436,74.4712053 L34.284304,62.8923988 C34.284304,62.3908174 34.6909161,61.9842053 35.1924975,61.9842053 L46.0908193,61.9842053 Z" id="Directional-Pad" fill="#000000"></path>
                    <rect id="Cord-Indent" stroke="#000000" stroke-width="0.908193485" x="60.3948667" y="22.9318855" width="9.08193485" height="2.72458045" rx="0.454096742"></rect>
                    <path d="M61.0760118,22.5816988 C64.3553689,11.7461745 70.8865172,4.21894154 80.6694567,-3.22655142e-15 C81.3841985,0.547468505 81.870977,0.964184735 82.1297921,1.25014869 C82.6482156,1.82295299 82.9910985,2.47591084 83.1574201,2.92131697 C83.3201249,3.35703765 83.4772628,4.21400951 83.4378915,5.07043501 C83.4218718,5.41890451 83.3283813,5.94966664 83.1574201,6.66272139 C75.456581,10.1665152 70.7436049,15.472841 69.0184919,22.5816988 C68.9446016,22.8861862 68.2592318,22.791878 67.1652065,22.8204342 C66.2848947,22.8434121 64.2551632,22.7638337 61.0760118,22.5816988 Z" id="Cord" fill="#000000"></path>
                </g>
            </g>
        </g>
    </g>
</svg>