<?xml version="1.0" encoding="UTF-8"?>
<svg width="225px" height="271px" viewBox="0 0 225 271" version="1.1" xmlns="http://www.w3.org/2000/svg" xmlns:xlink="http://www.w3.org/1999/xlink">
    <title>Sketchpad</title>
    <g id="Portfolio-Website" stroke="none" stroke-width="1" fill="none" fill-rule="evenodd">
        <g id="Home" transform="translate(-528.000000, -610.000000)">
            <g id="Vectors" transform="translate(22.000000, 612.000000)">
                <g id="Sketchpad" transform="translate(507.000000, 0.000000)">
                    <g id="Pencil" transform="translate(212.000000, 67.000000)">
                        <path d="M0,21.7456601 C2.22756319,7.24855337 3.96043934,-1.33093669e-14 5.19862847,-1.33093669e-14 C6.43681759,-1.33093669e-14 8.29410127,7.24855337 10.7704795,21.7456601 L10.7704795,197.621547 L10.0034686,199.941832 L8.09393774,200.629277 L2.71462078,200.629277 L0.701388183,199.941832 L0,197.470217 L0,21.7456601 Z" id="Pencil-Shape" stroke="#000000" stroke-width="1.87312687" fill="#FFFFFF"></path>
                        <g id="Pencil-Metal-Part" transform="translate(0.000000, 175.187178)">
                            <polygon id="Path-4" fill="#000000" points="0 0 10.7704795 0 10.7704795 18.1380096 0 18.1380096"></polygon>
                            <line x1="0.702422577" y1="3.666999" x2="10.0680569" y2="3.666999" id="border" stroke="#FFFFFF" stroke-width="0.669642857" stroke-linecap="square"></line>
                            <line x1="0.702422577" y1="5.30598501" x2="10.0680569" y2="5.30598501" id="border" stroke="#FFFFFF" stroke-width="0.669642857" stroke-linecap="square"></line>
                            <line x1="0.702422577" y1="12.3302108" x2="10.0680569" y2="12.3302108" id="border" stroke="#FFFFFF" stroke-width="0.669642857" stroke-linecap="square"></line>
                            <line x1="0.702422577" y1="13.9691968" x2="10.0680569" y2="13.9691968" id="border" stroke="#FFFFFF" stroke-width="0.669642857" stroke-linecap="square"></line>
                        </g>
                        <polyline id="Pencil-edge" stroke="#000000" stroke-width="0.936563437" points="0.621148651 21.4669711 3.08411183 22.8611078 5.27119228 20.7353736 8.22527579 22.8611078 10.7704795 21.4669711"></polyline>
                        <path d="M3.08411183,6.32609481 C4.49075149,7.24944309 5.94880512,7.24944309 7.45827274,6.32609481 L5.14779874,0.756208402 L3.08411183,6.32609481 Z" id="Pencil-Tip" fill="#000000"></path>
                    </g>
                    <g id="Notepad" stroke="#000000">
                        <path d="M8.85011446,0 L196.598971,0 C198.693736,1.40553041e-14 200.391877,1.69814195 200.391877,3.7929062 L200.391877,262.97483 C200.391877,265.069594 198.693736,266.767736 196.598971,266.767736 L8.85011446,266.767736 L8.85011446,266.767736 L8.85011446,0 Z" id="Container" stroke-width="3.7929062" fill="#FFFFFF" stroke-linejoin="round"></path>
                        <g id="Pages" transform="translate(9.141914, 1.264302)" stroke-width="0.669642857">
                            <path d="M0,0 L184.588102,0 C186.682866,-3.8480195e-16 188.381008,1.69814195 188.381008,3.7929062 L188.381008,259.814075 C188.381008,261.908839 186.682866,263.606981 184.588102,263.606981 L0,263.606981 L0,263.606981 L0,0 Z" id="Page"></path>
                            <path d="M0,0 L182.691649,0 C184.786413,1.44993933e-14 186.484555,1.69814195 186.484555,3.7929062 L186.484555,259.814075 C186.484555,261.908839 184.786413,263.606981 182.691649,263.606981 L0,263.606981 L0,263.606981 L0,0 Z" id="Page"></path>
                            <path d="M0,0 L180.795195,0 C182.88996,-8.2889116e-16 184.588102,1.69814195 184.588102,3.7929062 L184.588102,259.814075 C184.588102,261.908839 182.88996,263.606981 180.795195,263.606981 L0,263.606981 L0,263.606981 L0,0 Z" id="Page"></path>
                            <path d="M0,0 L178.898742,0 C180.993507,-3.8480195e-16 182.691649,1.69814195 182.691649,3.7929062 L182.691649,259.814075 C182.691649,261.908839 180.993507,263.606981 178.898742,263.606981 L0,263.606981 L0,263.606981 L0,0 Z" id="Page"></path>
                            <path d="M0,0 L177.002289,0 C179.097053,-1.52689972e-14 180.795195,1.69814195 180.795195,3.7929062 L180.795195,259.814075 C180.795195,261.908839 179.097053,263.606981 177.002289,263.606981 L0,263.606981 L0,263.606981 L0,0 Z" id="Page"></path>
                        </g>
                        <g id="Punches" transform="translate(0.000000, 17.700229)" stroke-width="1.26430207">
                            <g id="Punch" transform="translate(0.000000, 227.574372)">
                                <circle cx="16.0955756" cy="1.8964531" r="1.8964531"></circle>
                                <path d="M16.0955756,1.8964531 C11.2311001,1.05068347 6.58999394,1.05068347 2.17225719,1.8964531 C-2.24547956,2.74222273 0.0750735071,3.37437376 9.13391639,3.7929062" id="Oval" stroke-linecap="round"></path>
                            </g>
                            <g id="Punch" transform="translate(0.000000, 202.288331)">
                                <circle cx="16.0955756" cy="1.8964531" r="1.8964531"></circle>
                                <path d="M16.0955756,1.8964531 C11.2311001,1.05068347 6.58999394,1.05068347 2.17225719,1.8964531 C-2.24547956,2.74222273 0.0750735071,3.37437376 9.13391639,3.7929062" id="Oval" stroke-linecap="round"></path>
                            </g>
                            <g id="Punch" transform="translate(0.000000, 177.002289)">
                                <circle cx="16.0955756" cy="1.8964531" r="1.8964531"></circle>
                                <path d="M16.0955756,1.8964531 C11.2311001,1.05068347 6.58999394,1.05068347 2.17225719,1.8964531 C-2.24547956,2.74222273 0.0750735071,3.37437376 9.13391639,3.7929062" id="Oval" stroke-linecap="round"></path>
                            </g>
                            <g id="Punch" transform="translate(0.000000, 151.716248)">
                                <circle cx="16.0955756" cy="1.8964531" r="1.8964531"></circle>
                                <path d="M16.0955756,1.8964531 C11.2311001,1.05068347 6.58999394,1.05068347 2.17225719,1.8964531 C-2.24547956,2.74222273 0.0750735071,3.37437376 9.13391639,3.7929062" id="Oval" stroke-linecap="round"></path>
                            </g>
                            <g id="Punch" transform="translate(0.000000, 126.430207)">
                                <circle cx="16.0955756" cy="1.8964531" r="1.8964531"></circle>
                                <path d="M16.0955756,1.8964531 C11.2311001,1.05068347 6.58999394,1.05068347 2.17225719,1.8964531 C-2.24547956,2.74222273 0.0750735071,3.37437376 9.13391639,3.7929062" id="Oval" stroke-linecap="round"></path>
                            </g>
                            <g id="Punch" transform="translate(0.000000, 101.144165)">
                                <circle cx="16.0955756" cy="1.8964531" r="1.8964531"></circle>
                                <path d="M16.0955756,1.8964531 C11.2311001,1.05068347 6.58999394,1.05068347 2.17225719,1.8964531 C-2.24547956,2.74222273 0.0750735071,3.37437376 9.13391639,3.7929062" id="Oval" stroke-linecap="round"></path>
                            </g>
                            <g id="Punch" transform="translate(0.000000, 75.858124)">
                                <circle cx="16.0955756" cy="1.8964531" r="1.8964531"></circle>
                                <path d="M16.0955756,1.8964531 C11.2311001,1.05068347 6.58999394,1.05068347 2.17225719,1.8964531 C-2.24547956,2.74222273 0.0750735071,3.37437376 9.13391639,3.7929062" id="Oval" stroke-linecap="round"></path>
                            </g>
                            <g id="Punch" transform="translate(0.000000, 50.572083)">
                                <circle cx="16.0955756" cy="1.8964531" r="1.8964531"></circle>
                                <path d="M16.0955756,1.8964531 C11.2311001,1.05068347 6.58999394,1.05068347 2.17225719,1.8964531 C-2.24547956,2.74222273 0.0750735071,3.37437376 9.13391639,3.7929062" id="Oval" stroke-linecap="round"></path>
                            </g>
                            <g id="Punch" transform="translate(0.000000, 25.286041)">
                                <circle cx="16.0955756" cy="1.8964531" r="1.8964531"></circle>
                                <path d="M16.0955756,1.8964531 C11.2311001,1.05068347 6.58999394,1.05068347 2.17225719,1.8964531 C-2.24547956,2.74222273 0.0750735071,3.37437376 9.13391639,3.7929062" id="Oval" stroke-linecap="round"></path>
                            </g>
                            <g id="Punch">
                                <circle cx="16.0955756" cy="1.8964531" r="1.8964531"></circle>
                                <path d="M16.0955756,1.8964531 C11.2311001,1.05068347 6.58999394,1.05068347 2.17225719,1.8964531 C-2.24547956,2.74222273 0.0750735071,3.37437376 9.13391639,3.7929062" id="Oval" stroke-linecap="round"></path>
                            </g>
                        </g>
                        <g id="Grid" transform="translate(11.354443, 1.896453)" stroke-linecap="square" stroke-width="0.669642857">
                            <line x1="12.0108696" y1="0.316075516" x2="12.0108696" y2="265.187358" id="Line" stroke-opacity="0.153736888"></line>
                            <line x1="24.313539" y1="0.316075516" x2="24.313539" y2="265.187358" id="Line-Copy" stroke-opacity="0.153736888"></line>
                            <line x1="36.3244087" y1="0.316075516" x2="36.3244087" y2="265.187358" id="Line-Copy-2" stroke-opacity="0.153736888"></line>
                            <line x1="48.3352783" y1="0.316075516" x2="48.3352783" y2="265.187358" id="Line-Copy-3" stroke-opacity="0.153736888"></line>
                            <line x1="60.3461479" y1="0.316075516" x2="60.3461479" y2="265.187358" id="Line-Copy-4" stroke-opacity="0.153736888"></line>
                            <line x1="72.3570175" y1="0.316075516" x2="72.3570175" y2="265.187358" id="Line-Copy-5" stroke-opacity="0.153736888"></line>
                            <line x1="84.3678872" y1="0.316075516" x2="84.3678872" y2="265.187358" id="Line-Copy-6" stroke-opacity="0.153736888"></line>
                            <line x1="96.3787568" y1="0.316075516" x2="96.3787568" y2="265.187358" id="Line-Copy-7" stroke-opacity="0.153736888"></line>
                            <line x1="108.389626" y1="0.316075516" x2="108.389626" y2="265.187358" id="Line-Copy-8" stroke-opacity="0.153736888"></line>
                            <line x1="120.400496" y1="0.316075516" x2="120.400496" y2="265.187358" id="Line-Copy-9" stroke-opacity="0.153736888"></line>
                            <line x1="132.411366" y1="0.316075516" x2="132.411366" y2="265.187358" id="Line-Copy-10" stroke-opacity="0.153736888"></line>
                            <line x1="144.422235" y1="0.316075516" x2="144.422235" y2="265.187358" id="Line-Copy-11" stroke-opacity="0.153736888"></line>
                            <line x1="156.433105" y1="0.316075516" x2="156.433105" y2="265.187358" id="Line-Copy-12" stroke-opacity="0.153736888"></line>
                            <line x1="168.443975" y1="0.316075516" x2="168.443975" y2="265.187358" id="Line-Copy-13" stroke-opacity="0.153736888"></line>
                            <line x1="1.78895022e-14" y1="11.6947941" x2="178.266591" y2="11.6947941" id="Line-2" stroke-opacity="0.153163243"></line>
                            <line x1="1.78895022e-14" y1="24.0217393" x2="178.266591" y2="24.0217393" id="Line-2-Copy" stroke-opacity="0.153163243"></line>
                            <line x1="1.78895022e-14" y1="36.6647599" x2="178.266591" y2="36.6647599" id="Line-2-Copy-2" stroke-opacity="0.153163243"></line>
                            <line x1="1.78895022e-14" y1="49.3077806" x2="178.266591" y2="49.3077806" id="Line-2-Copy-3" stroke-opacity="0.153163243"></line>
                            <line x1="1.78895022e-14" y1="61.9508012" x2="178.266591" y2="61.9508012" id="Line-2-Copy-4" stroke-opacity="0.153163243"></line>
                            <line x1="1.78895022e-14" y1="74.5938219" x2="178.266591" y2="74.5938219" id="Line-2-Copy-5" stroke-opacity="0.153163243"></line>
                            <line x1="1.78895022e-14" y1="87.2368425" x2="178.266591" y2="87.2368425" id="Line-2-Copy-6" stroke-opacity="0.153163243"></line>
                            <line x1="1.78895022e-14" y1="99.8798632" x2="178.266591" y2="99.8798632" id="Line-2-Copy-7" stroke-opacity="0.153163243"></line>
                            <line x1="1.78895022e-14" y1="112.522884" x2="178.266591" y2="112.522884" id="Line-2-Copy-8" stroke-opacity="0.153163243"></line>
                            <line x1="1.78895022e-14" y1="125.165905" x2="178.266591" y2="125.165905" id="Line-2-Copy-9" stroke-opacity="0.153163243"></line>
                            <line x1="1.78895022e-14" y1="137.808925" x2="178.266591" y2="137.808925" id="Line-2-Copy-10" stroke-opacity="0.153163243"></line>
                            <line x1="1.78895022e-14" y1="150.451946" x2="178.266591" y2="150.451946" id="Line-2-Copy-11" stroke-opacity="0.153163243"></line>
                            <line x1="1.78895022e-14" y1="163.094967" x2="178.266591" y2="163.094967" id="Line-2-Copy-12" stroke-opacity="0.153163243"></line>
                            <line x1="1.78895022e-14" y1="175.737987" x2="178.266591" y2="175.737987" id="Line-2-Copy-13" stroke-opacity="0.153163243"></line>
                            <line x1="1.78895022e-14" y1="188.381008" x2="178.266591" y2="188.381008" id="Line-2-Copy-14" stroke-opacity="0.153163243"></line>
                            <line x1="1.78895022e-14" y1="201.024028" x2="178.266591" y2="201.024028" id="Line-2-Copy-15" stroke-opacity="0.153163243"></line>
                            <line x1="1.78895022e-14" y1="213.667049" x2="178.266591" y2="213.667049" id="Line-2-Copy-16" stroke-opacity="0.153163243"></line>
                            <line x1="1.78895022e-14" y1="226.31007" x2="178.266591" y2="226.31007" id="Line-2-Copy-17" stroke-opacity="0.153163243"></line>
                            <line x1="1.78895022e-14" y1="238.95309" x2="178.266591" y2="238.95309" id="Line-2-Copy-18" stroke-opacity="0.153163243"></line>
                            <line x1="1.78895022e-14" y1="251.596111" x2="178.266591" y2="251.596111" id="Line-2-Copy-19" stroke-opacity="0.153163243"></line>
                        </g>
                    </g>
                </g>
            </g>
        </g>
    </g>
</svg>