<?xml version="1.0" encoding="UTF-8"?>
<svg width="58px" height="99px" viewBox="0 0 58 99" version="1.1" xmlns="http://www.w3.org/2000/svg" xmlns:xlink="http://www.w3.org/1999/xlink">
    <!-- Generator: Sketch 63.1 (92452) - https://sketch.com -->
    <title>ShieldSword Area</title>
    <desc>Created with Sketch.</desc>
    <defs>
        <path d="M14.0783393,0.3918083 L12.3177433,0.361076982 L9.66496935,3.03487077 C9.40098394,3.3438436 9.40098801,3.62042217 9.66498158,3.8646065 C9.92897514,4.10879083 10.5879081,4.5539254 11.6417805,5.20001022 L10.7861919,17.8755951 L10.3471248,17.9346327 L1.10794081,18.4325465 C0.901984188,18.7281974 0.901987495,18.9526749 1.10795073,19.1059791 C7.41664243,19.2772012 10.5709883,19.3628123 10.5709883,19.3628123 L10.0438954,96.74279 L12.5012896,99.0656206 L14.9660526,96.8287066 L16.9014744,19.3691701 L25.8977357,19.5205441 C26.1794133,19.3061555 26.1794103,19.1022191 25.8977267,18.9087349 L16.7549839,18.0464823 L16.1552875,5.27879378 C17.1181462,4.88753448 17.8071545,4.46592831 18.2223123,4.01397526 C18.4217913,3.76759841 18.3663044,3.49005138 18.0558515,3.18133417 C17.7453987,2.87261695 16.87938,1.95080117 15.4577954,0.415886796 L14.0783393,0.3918083 Z" id="path-1"></path>
        <linearGradient x1="37.0382696%" y1="35.1384256%" x2="66.8734593%" y2="88.4878231%" id="linearGradient-3">
            <stop stop-color="#FFFFFF" offset="0%"></stop>
            <stop stop-color="#BFBFBF" offset="100%"></stop>
        </linearGradient>
        <linearGradient x1="38.3636878%" y1="12.292855%" x2="61.6156337%" y2="95.0083588%" id="linearGradient-4">
            <stop stop-color="#5FBFF9" offset="0%"></stop>
            <stop stop-color="#3C9FDB" offset="100%"></stop>
        </linearGradient>
        <linearGradient x1="38.4456199%" y1="37.343851%" x2="83.8219036%" y2="75.8778312%" id="linearGradient-5">
            <stop stop-color="#FFFFFF" offset="0%"></stop>
            <stop stop-color="#CDCDCD" offset="100%"></stop>
        </linearGradient>
        <path d="M29.1021616,49.0993055 C32.74916,49.0993055 35.7066478,47.9959408 37.974625,45.7892114 C40.2426021,43.582482 41.3765907,40.6840058 41.3765907,37.0937829 C41.3765907,34.715546 40.8580331,32.6288718 39.8209179,30.8337603 C38.7838028,29.0386489 37.3420987,27.6494384 35.4958057,26.6661289 C33.6495128,25.6828194 31.5182981,25.1568632 29.1021616,25.0882602 C25.7742755,25.0196572 23.7000452,24.9853557 22.8794705,24.9853557 C18.9361535,24.9853557 16.1895078,25.3512383 14.6395334,26.0830035 C13.0895591,26.8147687 11.9840627,28.1525269 11.3230442,30.0962782 L11.3230442,30.0962782 L11.6991409,30.2334842 C12.041047,29.6160573 12.3715563,29.1072518 12.6906686,28.7070678 C13.009781,28.3068837 13.4770527,27.8895488 14.0924837,27.4550632 C15.2777582,26.6318274 17.2950042,26.185908 20.1442217,26.117305 L20.1442217,26.117305 L20.1442217,46.8011055 C20.0758405,47.3499294 19.8365062,47.8129995 19.4262189,48.1903159 C19.0159316,48.5676324 18.5258661,48.7562906 17.9560226,48.7562906 L17.9560226,48.7562906 L17.5457353,48.7562906 L17.5115447,49.0993055 L29.1021616,49.0993055 Z M29.1021616,48.0702607 L22.3666114,48.0702607 L22.3666114,26.117305 L29.1021616,26.117305 C31.0168358,26.117305 32.709271,26.5746583 34.1794672,27.4893647 C35.6496635,28.4040712 36.7893505,29.6903772 37.5985283,31.3482827 C38.407706,33.0061882 38.8122949,34.921355 38.8122949,37.0937829 C38.8122949,40.3867262 37.9176406,43.039375 36.128332,45.0517293 C34.3390234,47.0640836 31.9969666,48.0702607 29.1021616,48.0702607 L29.1021616,48.0702607 Z" id="path-6"></path>
        <filter x="-3.3%" y="-4.1%" width="106.7%" height="108.3%" filterUnits="objectBoundingBox" id="filter-7">
            <feGaussianBlur stdDeviation="0.5" in="SourceAlpha" result="shadowBlurInner1"></feGaussianBlur>
            <feOffset dx="0" dy="1" in="shadowBlurInner1" result="shadowOffsetInner1"></feOffset>
            <feComposite in="shadowOffsetInner1" in2="SourceAlpha" operator="arithmetic" k2="-1" k3="1" result="shadowInnerInner1"></feComposite>
            <feColorMatrix values="0 0 0 0 0   0 0 0 0 0   0 0 0 0 0  0 0 0 0.199956294 0" type="matrix" in="shadowInnerInner1"></feColorMatrix>
        </filter>
        <linearGradient x1="47.6856402%" y1="84.1262712%" x2="56.6474214%" y2="0%" id="linearGradient-8">
            <stop stop-color="#000000" stop-opacity="0.02" offset="0%"></stop>
            <stop stop-color="#000000" stop-opacity="0.04" offset="100%"></stop>
        </linearGradient>
    </defs>
    <g id="Design-Stories-Templates/Pages" stroke="none" stroke-width="1" fill="none" fill-rule="evenodd">
        <g id="Design-Stories---Homepage" transform="translate(-120.000000, -32.000000)">
            <g id="Header">
                <g id="ShieldSword-Area" transform="translate(121.000000, 32.000000)">
                    <g id="Sword/Shield">
                        <g id="Sword" transform="translate(14.645437, 0.000000)">
                            <mask id="mask-2" fill="white">
                                <use xlink:href="#path-1"></use>
                            </mask>
                            <use id="Mask" fill="#5FBFF9" transform="translate(13.531234, 49.713349) rotate(-1.000000) translate(-13.531234, -49.713349) " xlink:href="#path-1"></use>
                            <rect id="Shadow" fill-opacity="0.06" fill="#000000" mask="url(#mask-2)" x="13.2435786" y="19.3077803" width="13.5869565" height="82.9519451"></rect>
                        </g>
                        <g id="Shield" transform="translate(0.000000, 19.310000)">
                            <path d="M27.3843993,74.0452142 C19.1036439,70.2803442 13.2463647,66.9870631 9.8125616,64.1653707 C6.29291347,61.2731361 3.73227066,57.5926913 2.13063317,53.1240364 L2.13063317,53.1240364 L0,4.94964695 C10.048785,4.94964695 19.3854516,3.30702608 28.01,0.0217843453 L28.01,0.0217843453 C36.6345484,3.30702608 45.971215,4.94964695 56.02,4.94964695 L53.8893668,53.1240364 C52.2877293,57.5926913 49.7270865,61.2731361 46.2074384,64.1653707 C42.6877903,67.0576054 36.6219775,70.445303 28.01,74.3284637 Z" id="Shield-Border" stroke-opacity="0.199328016" stroke="#0C1821" fill="url(#linearGradient-3)"></path>
                            <path d="M27.3962633,71.1868825 C19.8861987,67.7039661 14.5722562,64.6566752 11.4544357,62.0450099 C8.25234985,59.3627591 5.92274248,55.9495242 4.46561364,51.8053053 L4.46561364,51.8053053 L2.52721805,7.12850264 C11.6693457,7.12850264 20.1636064,5.60514035 28.01,2.55841575 L28.01,2.55841575 C35.8563936,5.60514035 44.3506543,7.12850264 53.492782,7.12850264 L51.5543864,51.8053053 C50.0972575,55.9495242 47.7676501,59.3627591 44.5655643,62.0450099 C41.3634784,64.7272608 35.8449569,67.8690027 28.01,71.4702357 Z" stroke-opacity="0.853228802" stroke="#FFFFFF" fill="url(#linearGradient-4)"></path>
                            <g id="D" fill-rule="nonzero">
                                <use fill="url(#linearGradient-5)" xlink:href="#path-6"></use>
                                <use fill="black" fill-opacity="1" filter="url(#filter-7)" xlink:href="#path-6"></use>
                            </g>
                            <path d="M52.0866809,4.00909755 C44.6732393,6.92850351 36.647679,8.38820648 28.01,8.38820648 L29.8414379,51.198024 C31.2181646,55.1690614 33.4192278,58.4396616 36.4446274,61.0098247 C39.4700271,63.5799878 44.6840449,66.5904405 52.0866809,70.0411827 L52.0866809,4.00909755 Z" id="Shadow" fill="url(#linearGradient-8)" transform="translate(40.048340, 37.025140) scale(-1, 1) translate(-40.048340, -37.025140) "></path>
                        </g>
                    </g>
                </g>
            </g>
        </g>
    </g>
</svg>