<?xml version="1.0" encoding="UTF-8"?>
<svg width="78px" height="105px" viewBox="0 0 78 105" version="1.1" xmlns="http://www.w3.org/2000/svg" xmlns:xlink="http://www.w3.org/1999/xlink">
    <!-- Generator: Sketch 63.1 (92452) - https://sketch.com -->
    <title>ShieldSword Area</title>
    <desc>Created with Sketch.</desc>
    <defs>
        <path d="M14.0783393,0.3918083 L12.3177433,0.361076982 L9.66496935,3.03487077 C9.40098394,3.3438436 9.40098801,3.62042217 9.66498158,3.8646065 C9.92897514,4.10879083 10.5879081,4.5539254 11.6417805,5.20001022 L10.7861919,17.8755951 L10.3471248,17.9346327 L1.10794081,18.4325465 C0.901984188,18.7281974 0.901987495,18.9526749 1.10795073,19.1059791 C7.41664243,19.2772012 10.5709883,19.3628123 10.5709883,19.3628123 L10.0438954,96.74279 L12.5012896,99.0656206 L14.9660526,96.8287066 L16.9014744,19.3691701 L25.8977357,19.5205441 C26.1794133,19.3061555 26.1794103,19.1022191 25.8977267,18.9087349 L16.7549839,18.0464823 L16.1552875,5.27879378 C17.1181462,4.88753448 17.8071545,4.46592831 18.2223123,4.01397526 C18.4217913,3.76759841 18.3663044,3.49005138 18.0558515,3.18133417 C17.7453987,2.87261695 16.87938,1.95080117 15.4577954,0.415886796 L14.0783393,0.3918083 Z" id="path-1"></path>
        <linearGradient x1="37.0382696%" y1="35.1384256%" x2="66.8734593%" y2="88.4878231%" id="linearGradient-3">
            <stop stop-color="#FFFFFF" offset="0%"></stop>
            <stop stop-color="#BFBFBF" offset="100%"></stop>
        </linearGradient>
        <linearGradient x1="38.3636878%" y1="12.292855%" x2="61.6156337%" y2="95.0083588%" id="linearGradient-4">
            <stop stop-color="#5FBFF9" offset="0%"></stop>
            <stop stop-color="#3C9FDB" offset="100%"></stop>
        </linearGradient>
        <linearGradient x1="38.4456199%" y1="37.343851%" x2="83.8219036%" y2="75.8778312%" id="linearGradient-5">
            <stop stop-color="#FFFFFF" offset="0%"></stop>
            <stop stop-color="#CDCDCD" offset="100%"></stop>
        </linearGradient>
        <path d="M29.1002913,49.09615 C32.7470553,49.09615 35.704353,47.9928562 37.9721844,45.7862686 C40.2400158,43.579681 41.3739315,40.6813911 41.3739315,37.0913989 C41.3739315,34.7133149 40.8554072,32.6267748 39.8183587,30.8317787 C38.7813102,29.0367826 37.3396988,27.6476614 35.4935245,26.6644151 C33.6473502,25.6811688 31.5162724,25.1552464 29.1002913,25.0866478 C25.7726191,25.0180493 23.698522,24.98375 22.8780001,24.98375 C18.9349365,24.98375 16.1884673,25.349609 14.6385926,26.0813272 C13.0887179,26.8130454 11.9832925,28.1507176 11.3223165,30.094344 L11.3223165,30.094344 L11.6983891,30.2315412 C12.0402732,29.614154 12.3707612,29.1053812 12.689853,28.7052228 C13.0089449,28.3050644 13.4761865,27.8877564 14.091578,27.4532988 C15.2767763,26.6301158 17.2938926,26.1842251 20.1429271,26.1156265 L20.1429271,26.1156265 L20.1429271,46.7980976 C20.0745502,47.3468863 19.8352313,47.8099267 19.4249704,48.1872188 C19.0147094,48.564511 18.5246755,48.7531571 17.9548686,48.7531571 L17.9548686,48.7531571 L17.5446077,48.7531571 L17.5104193,49.09615 L29.1002913,49.09615 Z M29.1002913,48.0671713 L22.3651739,48.0671713 L22.3651739,26.1156265 L29.1002913,26.1156265 C31.0148424,26.1156265 32.7071688,26.5729503 34.1772706,27.487598 C35.6473723,28.4022458 36.7869861,29.6884691 37.5961119,31.346268 C38.4052377,33.004067 38.8098005,34.9191106 38.8098005,37.0913989 C38.8098005,40.3841306 37.9152037,43.036609 36.1260101,45.0488339 C34.3368165,47.0610589 31.9949102,48.0671713 29.1002913,48.0671713 L29.1002913,48.0671713 Z" id="path-6"></path>
        <filter x="-3.3%" y="-4.1%" width="106.7%" height="108.3%" filterUnits="objectBoundingBox" id="filter-7">
            <feGaussianBlur stdDeviation="0.5" in="SourceAlpha" result="shadowBlurInner1"></feGaussianBlur>
            <feOffset dx="0" dy="1" in="shadowBlurInner1" result="shadowOffsetInner1"></feOffset>
            <feComposite in="shadowOffsetInner1" in2="SourceAlpha" operator="arithmetic" k2="-1" k3="1" result="shadowInnerInner1"></feComposite>
            <feColorMatrix values="0 0 0 0 0   0 0 0 0 0   0 0 0 0 0  0 0 0 0.199956294 0" type="matrix" in="shadowInnerInner1"></feColorMatrix>
        </filter>
        <linearGradient x1="47.6856402%" y1="84.1262712%" x2="56.6474214%" y2="0%" id="linearGradient-8">
            <stop stop-color="#000000" stop-opacity="0.02" offset="0%"></stop>
            <stop stop-color="#000000" stop-opacity="0.04" offset="100%"></stop>
        </linearGradient>
    </defs>
    <g id="Design-Stories-Templates/Pages" stroke="none" stroke-width="1" fill="none" fill-rule="evenodd">
        <g id="Design-Stories---Homepage" transform="translate(-110.000000, -32.000000)">
            <g id="Header">
                <g id="ShieldSword-Area" transform="translate(121.000000, 32.000000)">
                    <g id="Sword/Shield">
                        <path d="M27.3826394,93.3482357 C19.1024161,89.5836078 13.2455133,86.2905383 9.81193097,83.4690273 C6.29250904,80.5769785 3.73203079,76.8967702 2.13049624,72.4284025 L2.13049624,72.4284025 L0,24.2571092 C10.0481391,24.2571092 19.3842058,22.6145939 28.0081998,19.3295633 L28.0081998,19.3295633 C36.6321939,22.6145939 45.9682606,24.2571092 56.0163997,24.2571092 L53.8859035,72.4284025 C52.2843689,76.8967702 49.7238907,80.5769785 46.2044687,83.4690273 C42.6850468,86.361076 36.6196238,89.748556 28.0081998,93.631467 Z" id="Shield-Border" stroke="#0C1821" stroke-width="20"></path>
                        <g id="Sword" transform="translate(14.645437, 0.000000)">
                            <mask id="mask-2" fill="white">
                                <use xlink:href="#path-1"></use>
                            </mask>
                            <use id="Mask" fill="#5FBFF9" transform="translate(13.531234, 49.713349) rotate(-1.000000) translate(-13.531234, -49.713349) " xlink:href="#path-1"></use>
                            <rect id="Shadow" fill-opacity="0.06" fill="#000000" mask="url(#mask-2)" x="13.2435786" y="19.3077803" width="13.5869565" height="82.9519451"></rect>
                        </g>
                        <g id="Shield" transform="translate(0.000000, 19.307780)">
                            <path d="M27.3826394,74.0404554 C19.1024161,70.2758274 13.2455133,66.9827579 9.81193097,64.1612469 C6.29250904,61.2691982 3.73203079,57.5889899 2.13049624,53.1206222 L2.13049624,53.1206222 L0,4.94932885 C10.0481391,4.94932885 19.3842058,3.30681355 28.0081998,0.0217829453 L28.0081998,0.0217829453 C36.6321939,3.30681355 45.9682606,4.94932885 56.0163997,4.94932885 L53.8859035,53.1206222 C52.2843689,57.5889899 49.7238907,61.2691982 46.2044687,64.1612469 C42.6850468,67.0532957 36.6196238,70.4407756 28.0081998,74.3236867 Z" id="Shield-Border" stroke-opacity="0.199328016" stroke="#0C1821" fill="url(#linearGradient-3)"></path>
                            <path d="M27.3945026,71.1823074 C19.8849207,67.6996149 14.5713197,64.6525199 11.4536996,62.0410224 C8.25181949,59.3589439 5.92236184,55.9459284 4.46532664,51.8019759 L4.46532664,51.8019759 L2.52705563,7.12804451 C11.6685957,7.12804451 20.1623105,5.60478011 28.0081998,2.55825133 L28.0081998,2.55825133 C35.8540892,5.60478011 44.347804,7.12804451 53.4893441,7.12804451 L51.5510731,51.8019759 C50.0940379,55.9459284 47.7645802,59.3589439 44.5627001,62.0410224 C41.36082,64.7231009 35.8426533,67.8646409 28.0081998,71.4656424 Z" fill="url(#linearGradient-4)"></path>
                            <g id="D" fill-rule="nonzero">
                                <use fill="url(#linearGradient-5)" xlink:href="#path-6"></use>
                                <use fill="black" fill-opacity="1" filter="url(#filter-7)" xlink:href="#path-6"></use>
                            </g>
                            <path d="M52.0833333,4.00883989 C44.6703682,6.92805822 36.6453237,8.38766739 28.0081998,8.38766739 L29.83952,51.1947336 C31.2161582,55.1655158 33.41708,58.4359058 36.4422852,61.0059037 C39.4674904,63.5759017 44.6811731,66.5861608 52.0833333,70.0366812 L52.0833333,4.00883989 Z" id="Shadow" fill="url(#linearGradient-8)" transform="translate(40.045767, 37.022761) scale(-1, 1) translate(-40.045767, -37.022761) "></path>
                        </g>
                    </g>
                </g>
            </g>
        </g>
    </g>
</svg>