<?xml version="1.0" encoding="UTF-8"?>
<svg width="78px" height="105px" viewBox="0 0 78 105" version="1.1" xmlns="http://www.w3.org/2000/svg" xmlns:xlink="http://www.w3.org/1999/xlink">
    <!-- Generator: Sketch 63.1 (92452) - https://sketch.com -->
    <title>Sword/Shield</title>
    <desc>Created with Sketch.</desc>
    <defs>
        <path d="M29.0742177,0.391693592 L27.3141371,0.360971271 L24.6621398,3.03398227 C24.3982316,3.34286463 24.3982357,3.61936224 24.662152,3.86347508 C24.9260683,4.10758792 25.5848083,4.55259217 26.6383722,5.19848784 L25.7830341,17.8703617 L25.3440955,17.9293821 L16.1076164,18.4271501 C15.9017201,18.7227144 15.9017234,18.9471262 16.1076264,19.1003855 C22.4144711,19.2715575 25.5678935,19.3571435 25.5678935,19.3571435 L25.0409549,96.714467 L27.4976297,99.0366176 L29.961671,96.8003584 L31.8965262,19.3634994 L40.8901537,19.5148292 C41.1717489,19.3005033 41.1717459,19.0966266 40.8901447,18.9031991 L31.7500787,18.0411989 L31.1505578,5.27724833 C31.9332938,4.88296445 32.5321799,4.45991214 32.9472162,4.00809141 C33.1901945,3.76254699 33.1565027,3.48546136 32.8461407,3.17683453 C32.5357788,2.8682077 31.7381551,1.94785121 30.4532699,0.415765038 L29.0742177,0.391693592 Z" id="path-1"></path>
        <path d="M29.0917717,49.3200742 C32.7374681,49.3200742 35.6939,48.2171034 37.9610675,46.0111618 C40.2282349,43.8052203 41.3618186,40.9077789 41.3618186,37.3188377 C41.3618186,34.9414499 40.8434462,32.8555207 39.8067013,31.0610501 C38.7699563,29.2665795 37.328767,27.877865 35.4831332,26.8949066 C33.6374994,25.9119481 31.5070455,25.3861797 29.0917717,25.3176012 C25.7650737,25.2490227 23.6915839,25.2147334 22.8713022,25.2147334 C18.929393,25.2147334 16.1837279,25.5804854 14.6343069,26.3119894 C13.0848859,27.0434933 11.9797842,28.3807739 11.3190017,30.3238313 L11.3190017,30.3238313 L11.6949642,30.4609883 C12.0367482,29.8437818 12.3671394,29.335158 12.6861379,28.9351168 C13.0051363,28.5350755 13.4722412,28.1178897 14.0874524,27.6835592 C15.2723038,26.8606173 17.2888296,26.4148571 20.1370299,26.3462786 L20.1370299,26.3462786 L20.1370299,47.0226946 C20.0686731,47.5713226 19.8294243,48.0342274 19.4192834,48.4114091 C19.0091426,48.7885908 18.5192521,48.9771817 17.9496121,48.9771817 L17.9496121,48.9771817 L17.5394712,48.9771817 L17.5052928,49.3200742 L29.0917717,49.3200742 Z M29.0917717,48.2913968 L22.3586261,48.2913968 L22.3586261,26.3462786 L29.0917717,26.3462786 C31.0057623,26.3462786 32.6975933,26.8034686 34.1672646,27.7178485 C35.636936,28.6322284 36.7762161,29.9180752 37.585105,31.5753888 C38.3939939,33.2327024 38.7984383,35.1471854 38.7984383,37.3188377 C38.7984383,40.6106054 37.9041035,43.2623072 36.1154337,45.273943 C34.3267639,47.2855789 31.9855432,48.2913968 29.0917717,48.2913968 L29.0917717,48.2913968 Z" id="path-3"></path>
        <filter x="-3.3%" y="-4.1%" width="106.7%" height="108.3%" filterUnits="objectBoundingBox" id="filter-4">
            <feGaussianBlur stdDeviation="0.5" in="SourceAlpha" result="shadowBlurInner1"></feGaussianBlur>
            <feOffset dx="0" dy="1" in="shadowBlurInner1" result="shadowOffsetInner1"></feOffset>
            <feComposite in="shadowOffsetInner1" in2="SourceAlpha" operator="arithmetic" k2="-1" k3="1" result="shadowInnerInner1"></feComposite>
            <feColorMatrix values="0 0 0 0 0   0 0 0 0 0   0 0 0 0 0  0 0 0 0.199956294 0" type="matrix" in="shadowInnerInner1"></feColorMatrix>
        </filter>
    </defs>
    <g id="Design-Stories-Templates/Pages" stroke="none" stroke-width="1" fill="none" fill-rule="evenodd">
        <g id="Design-Stories---Homepage" transform="translate(-111.000000, -24.000000)">
            <g id="Header">
                <g id="Sword/Shield" transform="translate(121.000000, 24.000000)">
                    <g id="Sword" transform="translate(0.641150, 0.000000)">
                        <path d="M27.7334729,93.1350478 C19.4556739,89.3715219 13.6004858,86.0794165 10.1679086,83.2587316 C6.64951706,80.3675295 4.08978844,76.6883987 2.48872276,72.2213391 L2.48872276,72.2213391 L0.358850259,24.0641487 C10.4040476,24.0641487 19.737381,22.4221143 28.3588503,19.1380454 L28.3588503,19.1380454 C36.9803195,22.4221143 46.3136529,24.0641487 56.3588503,24.0641487 L54.2289778,72.2213391 C52.6279121,76.6883987 50.0681835,80.3675295 46.5497919,83.2587316 C43.0314003,86.1499337 36.9677531,89.5364218 28.3588503,93.4181961 Z" id="Shield-Border" stroke="#0C1821" stroke-width="20" fill="#FFFFFF"></path>
                        <mask id="mask-2" fill="white">
                            <use xlink:href="#path-1"></use>
                        </mask>
                        <use id="Mask" fill="#5FBFF9" transform="translate(28.527272, 49.698794) rotate(-1.000000) translate(-28.527272, -49.698794) " xlink:href="#path-1"></use>
                        <rect id="Shadow" fill-opacity="0.06" fill="#000000" mask="url(#mask-2)" x="28.2397013" y="-1.90638298" width="13.5829787" height="104.13617"></rect>
                    </g>
                    <g id="Shield" transform="translate(1.000000, 18.877971)">
                        <path d="M27.3746227,74.2570768 C19.0968236,70.4935509 13.2416355,67.2014455 9.80905837,64.3807606 C6.29066681,61.4895585 3.73093818,57.8104277 2.1298725,53.3433681 L2.1298725,53.3433681 L0,5.18617773 C10.0451974,5.18617773 19.3785307,3.5441433 28,0.26007444 L28,0.26007444 C36.6214693,3.5441433 45.9548026,5.18617773 56,5.18617773 L53.8701275,53.3433681 C52.2690618,57.8104277 49.7093332,61.4895585 46.1909416,64.3807606 C42.6725501,67.2719627 36.6089029,70.6584509 28,74.5402251 Z" id="Shield-Border" stroke-opacity="0.403709572" stroke="#0C1821" fill="#FFFFFF"></path>
                        <path d="M27.3864824,71.3997655 C19.8790991,67.9180926 14.5670537,64.8718897 11.4503463,62.2611568 C8.24940363,59.5798635 5.92062797,56.1678472 4.46401934,52.0251079 L4.46401934,52.0251079 L2.52631579,7.36425553 C11.6651796,7.36425553 20.1564076,5.8414371 28,2.79580023 L28,2.79580023 C35.8435924,5.8414371 44.3348204,7.36425553 53.4736842,7.36425553 L51.5359807,52.0251079 C50.079372,56.1678472 47.7505964,59.5798635 44.5496537,62.2611568 C41.348711,64.94245 35.8321597,68.0830703 28,71.6830176 Z" fill="#5FBFF9"></path>
                        <path d="M56,0.162546525 C47.3785307,3.45108694 38.0451974,5.09535715 28,5.09535715 L30.1298725,53.318118 C31.7309382,57.7912599 34.2906668,61.4754001 37.8090584,64.3705389 C41.3274499,67.2656776 47.3910971,70.6567768 56,74.5438365 L56,0.162546525 Z" id="Shadow" fill-opacity="0.0566" fill="#000000" transform="translate(42.000000, 37.353191) scale(-1, 1) translate(-42.000000, -37.353191) "></path>
                        <g id="D" fill-rule="nonzero">
                            <use fill="#FFFFFF" xlink:href="#path-3"></use>
                            <use fill="black" fill-opacity="1" filter="url(#filter-4)" xlink:href="#path-3"></use>
                        </g>
                    </g>
                </g>
            </g>
        </g>
    </g>
</svg>