<?xml version="1.0" encoding="UTF-8"?>
<svg width="138px" height="275px" viewBox="0 0 138 275" version="1.1" xmlns="http://www.w3.org/2000/svg" xmlns:xlink="http://www.w3.org/1999/xlink">
    <title>Preview</title>
    <g id="DD-Portfolio" stroke="none" stroke-width="1" fill="none" fill-rule="evenodd">
        <g id="Projects-Loaded-Screen" transform="translate(-651.000000, -118.000000)" fill="#FFFFFF">
            <g id="Body" transform="translate(651.000000, 118.000000)">
                <path d="M126.568795,2.74049002 C129.917141,4.52869056 132.544942,7.15280219 134.335657,10.4964465 C136.093813,13.7792973 137.045046,17.0360435 137.079055,25.809537 L137.078811,63.4734951 C137.169292,63.4209571 137.274461,63.3908686 137.386667,63.3908686 C137.725401,63.3908686 138,63.6650817 138,64.0033408 L138,94.6269488 C138,94.9652078 137.725401,95.2394209 137.386667,95.2394209 C137.274461,95.2394209 137.169292,95.2093325 137.078811,95.1567945 L137.08,248.697336 C137.08,257.843345 136.126372,261.159909 134.335657,264.503554 C132.544942,267.847198 129.917141,270.471309 126.568795,272.25951 C123.220449,274.047711 119.899222,275 110.740353,275 L76.0534456,275 C75.7737024,274.628093 75.3283175,274.387528 74.8266667,274.387528 L63.1733333,274.387528 C62.6716825,274.387528 62.2262976,274.628093 61.9465544,275 L27.2596473,275 C18.1007781,275 14.7795508,274.047711 11.4312051,272.25951 C8.08285946,270.471309 5.45505818,267.847198 3.66434331,264.503554 C1.9061869,261.220703 0.954954121,257.963956 0.920945047,249.190463 L0.92118896,101.893988 C0.830707618,101.946526 0.725539185,101.976615 0.613333333,101.976615 C0.274598687,101.976615 -1.11222143e-12,101.702402 -1.11222143e-12,101.364143 L-1.11222143e-12,82.3775056 C-1.11222143e-12,82.0392465 0.274598687,81.7650334 0.613333333,81.7650334 C0.725539185,81.7650334 0.830707618,81.7951219 0.92118896,81.8476599 L0.92118896,76.7826297 C0.830707618,76.8351677 0.725539185,76.8652561 0.613333333,76.8652561 C0.274598687,76.8652561 -1.11222143e-12,76.591043 -1.11222143e-12,76.252784 L-1.11222143e-12,57.266147 C-1.11222143e-12,56.927888 0.274598687,56.6536748 0.613333333,56.6536748 C0.725539185,56.6536748 0.830707618,56.6837633 0.92118896,56.7363013 L0.92118896,47.690202 C0.830707618,47.74274 0.725539185,47.7728285 0.613333333,47.7728285 C0.274598687,47.7728285 -1.11222143e-12,47.4986154 -1.11222143e-12,47.1603563 L-1.11222143e-12,37.6670379 C-1.11222143e-12,37.3287788 0.274598687,37.0545657 0.613333333,37.0545657 C0.725539185,37.0545657 0.830707618,37.0846542 0.92118896,37.1371922 L0.92,26.3026641 C0.92,17.1566548 1.87362845,13.8400908 3.66434331,10.4964465 C5.45505818,7.15280219 8.08285946,4.52869056 11.4312051,2.74049002 C14.7186718,0.984802206 17.9799972,0.0349050422 26.7658268,0.000943719813 L110.740353,0 C119.899222,0 123.220449,0.952289468 126.568795,2.74049002 Z M33.585969,8.26837416 L25.3182916,8.26837416 C19.7136105,8.26837416 17.6812177,8.85111847 15.63223,9.94539044 C13.5832424,11.0396624 11.9751849,12.6454621 10.8793743,14.6915728 C9.78356368,16.7376835 9.2,18.7672226 9.2,24.3640343 L9.2,24.3640343 L9.2,250.635966 C9.2,256.232777 9.78356368,258.262317 10.8793743,260.308427 C11.9751849,262.354538 13.5832424,263.960338 15.63223,265.05461 C17.6812177,266.148882 19.7136105,266.731626 25.3182916,266.731626 L25.3182916,266.731626 L112.681708,266.731626 C118.28639,266.731626 120.318782,266.148882 122.36777,265.05461 C124.416758,263.960338 126.024815,262.354538 127.120626,260.308427 C128.216436,258.262317 128.8,256.232777 128.8,250.635966 L128.8,250.635966 L128.8,24.3640343 C128.8,18.7672226 128.216436,16.7376835 127.120626,14.6915728 C126.024815,12.6454621 124.416758,11.0396624 122.36777,9.94539044 C120.318782,8.85111847 118.28639,8.26837416 112.681708,8.26837416 L112.681708,8.26837416 L104.414007,8.26837416 C103.472681,8.26837416 102.683516,8.9795916 102.585973,9.91585017 C102.361891,12.0666631 102.069675,13.4784944 101.709325,14.1513442 C101.041147,15.3989727 100.060625,16.3781188 98.8112419,17.0453578 C97.5618591,17.7125968 96.2214088,18.0679287 93.411039,18.0679287 L93.411039,18.0679287 L44.588961,18.0679287 C41.7785912,18.0679287 40.4381409,17.7125968 39.1887581,17.0453578 C37.9393754,16.3781188 36.9588526,15.3989727 36.2906754,14.1513442 C35.9303252,13.478494 35.6381088,12.0666614 35.4140264,9.91584633 C35.3164812,8.97957652 34.5273065,8.2683504 33.585969,8.26837416 L33.585969,8.26837416 Z" id="phone"></path>
            </g>
        </g>
    </g>
</svg>